<?xml version="1.0" encoding="UTF-8"?><svg id="Seal" xmlns="http://www.w3.org/2000/svg" xmlns:xlink="http://www.w3.org/1999/xlink" viewBox="0 0 1225 350"><defs><style>.cls-1,.cls-2{fill:none;}.cls-3,.cls-4{fill:#710100;}.cls-5{fill:#fca905;}.cls-5,.cls-6,.cls-4,.cls-2,.cls-7,.cls-8{stroke:#fff;stroke-linejoin:round;}.cls-5,.cls-6,.cls-4,.cls-7,.cls-8{fill-rule:evenodd;stroke-width:.7px;}.cls-9{fill:#ccc;}.cls-6{fill:#ffff06;}.cls-2{stroke-linecap:round;stroke-width:3px;}.cls-7{fill:#e50102;}.cls-10{fill:#52704a;}.cls-8{fill:#fcd683;}.cls-11{clip-path:url(#clippath);}</style><clipPath id="clippath"><circle class="cls-1" cx="175" cy="175" r="150"/></clipPath></defs><g class="cls-11"><circle class="cls-9" cx="175" cy="175" r="150"/><path class="cls-6" d="M59.6,25.16l.04-.16h265.36v264.32l-.46.14-.11.03-.34.1-.46.14-.45.12-.36.1-.1.02-.45.12-.46.11-.45.11-.42.09h-.04l-.45.11-.46.09-.45.09-.46.08-.45.08h-.04l-.42.07-.45.07-.46.07-.45.06-.46.05-.45.05-.46.04-.46.04h-.17l-.28.03-.46.03-.45.03h-.46l-.45.03h-1.82l-.46-.02-.45-.02-.46-.02-.45-.02-.46-.03h-.03l-.42-.04-.46-.04-.45-.05-.46-.05-.45-.06-.46-.06-.46-.06-.45-.08-.16-.02-.3-.05-.45-.08-.46-.09-.45-.09-.46-.09-.25-.06-.2-.04-.46-.11-.45-.1-.46-.12-.32-.08-.13-.04-.46-.12-.45-.13-.46-.13-.14-.04-.31-.09-.46-.14-.45-.15-.24-.07-.22-.07-.45-.16-.46-.15-.21-.08-.25-.08-.45-.17-.46-.17-.1-.03-.35-.14-.46-.17-.37-.15-.08-.03-.46-.18-.45-.19-.13-.05-.33-.14-.45-.19-.3-.13-.16-.07-.45-.2-.42-.18-.04-.02-.45-.2-.46-.21-.06-.03-.39-.18-.46-.22-.12-.06-.33-.15-.46-.22-.16-.08-.29-.14-.46-.23-.18-.09-.27-.13-.46-.23-.18-.09-.28-.14-.45-.23-.17-.09-.29-.14-.45-.24-.14-.07-.32-.17-.45-.24-.1-.05-.36-.19-.45-.24-.05-.02-.41-.22-.44-.24h-.01l-.46-.25-.37-.2-.08-.05-.46-.24-.29-.17-.16-.08-.46-.25-.22-.12-.23-.13-.46-.25-.13-.08-.32-.18-.46-.25-.05-.02-.4-.23-.42-.23-.04-.02-.46-.26-.31-.17-.14-.08-.46-.25-.22-.13-.23-.13-.46-.25-.13-.07-.32-.18-.46-.26-.04-.02-.41-.23-.41-.22-.05-.03-.45-.25-.32-.18-.14-.08-.45-.25-.23-.13-.23-.12-.45-.25-.15-.08-.31-.17-.45-.25-.07-.04-.39-.2-.45-.25h0l-.46-.25-.38-.21-.07-.03-.46-.25-.32-.17-.14-.07-.45-.24-.27-.15-.19-.1-.45-.24-.22-.11-.24-.12-.45-.24-.18-.1-.28-.14-.45-.23-.15-.08-.31-.16-.45-.23-.14-.07-.32-.16-.45-.23-.13-.06-.33-.17-.45-.22-.14-.07-.32-.16-.45-.22-.15-.07-.31-.15-.45-.22-.19-.09-.27-.13-.45-.21-.24-.11-.22-.11-.46-.21-.3-.14-.15-.07-.46-.21-.38-.17-.07-.03-.46-.21-.45-.2-.04-.02-.42-.18-.45-.2-.17-.07-.29-.13-.45-.19-.33-.14-.13-.05-.45-.19-.46-.19-.06-.03-.39-.16-.46-.18-.27-.11-.18-.07-.46-.18-.45-.18-.08-.03-.38-.14-.45-.17-.37-.14-.09-.03-.46-.17-.45-.17-.25-.09-.21-.07-.45-.16-.46-.16-.18-.06-.27-.09-.46-.16-.45-.15-.19-.06-.27-.08-.45-.15-.46-.14-.25-.08-.2-.06-.46-.14-.45-.14-.41-.12h-.05l-.45-.14-.46-.13-.45-.12-.22-.06-.24-.07-.45-.11-.46-.12-.46-.12-.16-.04-.29-.07-.46-.11-.45-.1-.46-.11-.3-.06-.15-.04-.46-.09-.45-.1-.46-.09-.45-.09-.25-.05-.21-.04-.45-.08-.46-.08-.45-.08-.46-.07-.45-.08-.19-.02-.27-.04-.45-.07-.46-.06-.45-.06-.46-.06-.46-.05-.45-.05-.46-.05-.16-.02-.29-.03-.46-.04-.45-.04-.46-.03-.45-.04-.46-.02-.45-.03-.46-.02-.45-.02-.46-.02h-.45l-.46-.02h-2.27l-.46.02h-.46l-.45.03-.46.02-.45.02-.46.03-.45.03-.46.03-.45.04-.46.04-.45.04-.16.02-.3.03-.45.05-.46.06-.45.06-.46.06-.45.07-.46.07-.37.06h-.08l-.46.09-.45.08-.46.08-.45.09-.46.09-.09.02-.37.08-.45.1-.46.1-.45.11-.27.07-.19.04-.45.12-.46.12-.45.12-.19.05-.27.08-.45.13-.46.13-.37.12-.08.02-.46.15-.45.15-.42.13-.04.02-.45.15-.46.16-.35.13-.1.04-.46.17-.45.17-.2.07-.26.1-.46.19-.42.17h-.03l-.46.2-.45.19-.14.06-.32.14-.45.21-.25.11-.21.09-.45.21-.32.15-.14.07-.45.22-.35.17-.11.05-.45.23-.34.17-.12.07-.45.24-.29.15-.17.09-.45.25-.22.12-.24.13-.45.26-.12.06-.34.2-.44.26h0l-.46.27-.29.18-.17.1-.45.28-.12.08-.34.2-.38.25-.07.04-.46.3-.18.12-.27.18-.41.27-.05.03-.45.31-.17.12-.29.19-.37.26-.08.06-.46.32-.1.08-.35.25-.28.2-.18.14-.43.32h-.02l-.46.36-.13.09-.32.25-.27.21-.19.15-.39.3-.06.05-.46.37-.05.04-.4.32-.17.13-.29.25-.26.21-.2.16-.34.29-.11.09-.43.37-.03.02-.45.39-.05.05-.41.35-.11.1-.34.3-.17.16-.29.25-.22.2-.23.21-.27.25-.19.17-.3.28-.15.14-.34.32-.12.11-.36.34-.09.09-.39.37-.07.06-.4.39-.05.06-.41.4-.05.04-.41.41-.04.04-.42.42-.04.04-.41.41-.04.05-.4.41-.06.06-.38.39-.07.08-.37.38-.09.09-.34.36-.12.12-.31.34-.14.15-.29.3-.17.19-.25.27-.2.22-.22.24-.24.26-.17.19-.28.31-.13.15-.33.36-.08.09-.37.42-.03.04-.4.45-.03.03-.37.43-.08.09-.32.36-.14.17-.25.29-.2.24-.19.21-.27.32-.11.14-.34.4-.05.05-.38.46-.03.03-.35.42-.1.13-.28.33-.18.22-.19.23-.26.32-.11.14-.35.42-.03.03-.36.46-.06.07-.31.38-.15.19-.22.27-.24.3-.12.15-.33.42-.03.04-.36.46-.07.08-.29.37-.16.21-.2.25-.26.33-.09.12-.35.46h0l-.35.45-.11.14-.24.32-.21.28-.14.17-.32.42-.03.04-.34.45-.08.11-.27.35-.19.24-.16.21-.29.4-.05.06-.34.45-.07.09-.28.37-.17.23-.17.22-.29.39-.05.07-.34.45-.06.09-.28.37-.18.24-.16.21-.29.4-.05.06-.34.46-.07.09-.27.36-.18.26-.15.2-.31.41-.03.04-.34.46-.09.11-.25.34-.2.28-.13.18-.33.43v.02l-.35.46-.1.14-.23.31-.23.3-.11.16-.34.45h0l-.34.46-.12.16-.21.29-.24.32-.1.14-.34.45-.02.02-.32.44-.13.17-.21.28-.25.33-.09.13-.35.45v.03l-.34.43-.13.17-.21.29-.24.31-.11.14-.34.46h-.01l-.34.45-.11.15-.24.31-.22.28-.13.17-.32.42-.03.04-.35.45-.08.1-.28.36-.17.22-.18.23-.28.35-.08.11-.36.45-.02.02-.35.44-.1.13-.26.32-.2.24-.17.22-.28.35-.09.1-.37.45h0l-.38.46-.07.09-.31.37-.15.18-.23.27-.22.27-.17.19H42.3l-.46-.32-.18-.14-.27-.18-.38-.27-.08-.05-.45-.32-.12-.09-.34-.24-.29-.21-.16-.12-.46-.33h0l-.44-.33-.18-.13-.28-.2-.34-.26-.11-.08-.46-.34-.04-.03-.41-.32-.19-.14-.27-.2-.32-.25-.13-.1-.46-.36h0l-.45-.35-.13-.1-.33-.26-.25-.2-.21-.16-.36-.29-.09-.08-.46-.37h0l-.44-.37-.12-.09-.34-.28-.21-.18-.24-.2-.31-.25-.15-.13-.39-.33-.06-.06-.46-.38h-.01l-.44-.4-.09-.07-.37-.32-.15-.14-.3-.26-.22-.19-.24-.22-.27-.24-.18-.16-.32-.29-.14-.13-.36-.33-.09-.08-.4-.37-.06-.05-.43-.41-.02-.02-.46-.43h0l-.45-.43-.03-.03-.43-.41v-75.81l.39-.26.07-.04.45-.29.18-.12.28-.17.44-.29h0l.46-.29.26-.16.19-.12.46-.28.09-.06.36-.22.39-.23.07-.05.45-.27.23-.14.23-.13.45-.27.09-.05.37-.22.4-.24.05-.03.46-.27.27-.15.18-.11.46-.26.15-.09.3-.18.46-.26h.03l.42-.26.38-.21.08-.05.46-.25.26-.15.19-.11.46-.26.16-.09.29-.16.46-.26.07-.04.38-.21.43-.24h.03l.45-.27.34-.19.12-.06.45-.25.26-.14.2-.11.45-.25.17-.1.29-.15.45-.25.09-.05.37-.2.45-.25h.01l.45-.25.38-.21.07-.04.46-.25.3-.17.15-.08.46-.25.22-.12.24-.13.45-.25.13-.08.33-.17.45-.25.05-.03.41-.22.42-.24.03-.02.46-.25.33-.18.12-.07.46-.25.24-.14.21-.11.46-.26.15-.08.3-.17.46-.26.06-.03.39-.22.42-.23.04-.03.45-.25.31-.18.15-.08.45-.26.21-.11.25-.15.45-.26.1-.05.36-.21.43-.25h.03l.45-.27.31-.18.15-.08.45-.27.19-.11.27-.15.45-.27.06-.03.4-.23.37-.23.08-.04.46-.27.23-.14.22-.13.46-.27.09-.06.36-.21.4-.24.06-.04.45-.27.24-.15.22-.13.45-.28.08-.04.38-.24.36-.22.09-.06.46-.28.18-.11.27-.17.46-.29h0l.45-.29.27-.16.19-.12.46-.29.06-.05.39-.25.32-.2.14-.09.45-.29.11-.08.35-.22.35-.23.1-.07.46-.3.13-.09.32-.21.36-.24.1-.07.45-.3.13-.09.33-.22.34-.23.11-.08.46-.32.09-.06.36-.25.3-.21.16-.11.45-.32.04-.02.42-.3.22-.16.23-.16.41-.29.05-.04.45-.33.13-.09.33-.24.29-.21.17-.12.45-.34h0l.46-.34.15-.11.3-.23.3-.23.16-.11.44-.34h0l.46-.36.12-.1.33-.25.26-.2.2-.16.37-.3.08-.06.46-.36.04-.03.41-.34.15-.12.31-.25.25-.2.2-.17.35-.29.11-.09.44-.36v-.02l.47-.38.07-.06.38-.33.15-.12.31-.27.22-.19.23-.21.29-.25.17-.14.35-.31.11-.1.39-.36.06-.05.45-.4h0l.45-.43.03-.03.43-.39.07-.06.38-.36.1-.1.36-.34.12-.11.33-.32.14-.14.32-.3.15-.15.3-.3.16-.16.3-.3.15-.15.3-.31.15-.15.31-.31.14-.14.31-.33.12-.13.34-.35.1-.1.35-.39.07-.07.39-.42.03-.03.42-.46h0l.4-.45.06-.07.35-.39.1-.12.3-.34.16-.19.23-.26.23-.27.15-.19.3-.35.08-.1.38-.45h0l.37-.46.08-.1.28-.36.18-.21.18-.24.27-.35.09-.11.34-.45.03-.03.32-.43.13-.18.2-.27.26-.35.08-.11.32-.45.05-.07.27-.39.19-.26.13-.19.31-.46h.01l.3-.45.16-.25.14-.21.29-.45.02-.03.27-.43.19-.29.1-.17.28-.45.07-.12.2-.34.26-.42.02-.03.26-.46.17-.3.09-.15.26-.46.11-.2.14-.25.24-.46.07-.14.17-.31.24-.46.05-.1.18-.35.22-.46.06-.11.16-.34.22-.46.07-.15.14-.3.21-.46.11-.24.09-.21.2-.46.16-.39.03-.06.19-.46.18-.46.06-.14.12-.31.17-.46.16-.42v-.03l.18-.46.16-.45.12-.35.03-.11.15-.45.15-.46.12-.39.02-.06.14-.46.13-.45.13-.46.04-.13.08-.32.12-.46.12-.45.11-.46.02-.09.09-.36.1-.46.1-.45.09-.46.08-.38v-.08l.1-.45.08-.46.07-.45.08-.46.07-.45.05-.41v-.05l.07-.45.05-.46.06-.45.04-.46.05-.45.04-.46.03-.45.03-.46.03-.45.02-.46.02-.45v-.46l.02-.21v-1.16s.01-.91.01-.91v-.3s-.01-.15-.01-.15l-.02-.46-.02-.45-.02-.46-.02-.45-.03-.46-.04-.45-.04-.46-.04-.45-.04-.46-.05-.45-.06-.46-.05-.45-.03-.19-.03-.27-.07-.45-.07-.46-.07-.45-.08-.46-.08-.46-.05-.29-.03-.16-.09-.46-.09-.45-.1-.46-.1-.45-.05-.21-.05-.25-.11-.45-.11-.46-.12-.45-.06-.25-.06-.21-.12-.45-.13-.46-.13-.45-.02-.08-.11-.38-.14-.45-.14-.46-.06-.2-.09-.25-.14-.46-.16-.45-.07-.21-.08-.25-.16-.45-.17-.46-.04-.12-.13-.34-.17-.45-.16-.42v-.04l-.19-.45-.18-.46-.08-.19-.11-.26-.19-.46-.16-.38-.03-.07-.2-.46-.2-.45-.02-.06-.18-.4-.21-.45-.07-.15-.14-.31-.22-.45-.1-.21-.11-.25-.23-.45-.11-.24-.11-.22-.23-.45-.12-.24-.11-.22-.23-.45-.11-.21-.13-.25-.24-.46-.09-.15-.16-.3-.25-.46-.04-.08-.21-.37-.25-.45h0l-.26-.46-.19-.34-.07-.12-.26-.45-.13-.21-.14-.25-.27-.45-.04-.07-.23-.39-.23-.37-.05-.08-.28-.46-.12-.2-.16-.25-.28-.46-.02-.02-.27-.43-.18-.29-.11-.17-.29-.45-.06-.09-.24-.37-.21-.33-.09-.12-.3-.46-.07-.11-.23-.35-.22-.33-.09-.12-.3-.46-.07-.09-.25-.36-.2-.31-.11-.15-.31-.45-.04-.06-.28-.4-.18-.25-.14-.2-.31-.44v-.02l-.33-.45-.13-.18-.2-.28-.25-.35-.07-.1-.33-.46-.06-.07-.27-.38-.18-.25-.16-.21-.3-.41-.03-.04-.34-.46-.08-.12-.25-.33-.21-.28-.13-.18-.32-.43-.02-.02-.34-.46-.1-.13-.24-.33-.21-.27-.14-.18-.32-.42-.02-.04-.35-.45-.08-.11-.26-.35-.2-.25-.15-.2-.3-.4-.05-.06-.35-.45-.06-.08-.29-.38-.16-.21-.19-.24-.27-.36-.08-.1-.35-.45-.02-.04-.33-.42-.13-.17-.22-.28-.24-.31-.11-.15-.34-.43-.02-.02-.35-.46-.09-.11-.26-.34-.19-.25-.16-.21-.3-.38-.05-.07-.35-.46-.05-.06-.3-.4-.16-.19-.19-.26-.26-.34-.09-.12-.35-.45-.02-.02-.33-.44-.12-.15-.23-.3-.23-.3-.12-.16-.33-.44h0l-.35-.47-.1-.13-.24-.32-.21-.28-.13-.18-.33-.43-.02-.02-.34-.46-.09-.13-.25-.32-.21-.29-.12-.17-.33-.45h0l-.33-.46-.12-.16-.22-.29-.23-.33-.1-.13-.33-.45-.03-.05-.29-.41-.17-.23-.16-.23-.29-.41-.03-.04-.32-.46-.11-.14-.21-.31-.24-.34-.08-.12-.31-.45-.07-.09-.25-.37-.2-.3-.11-.15-.3-.46-.05-.06-.26-.39-.19-.29-.11-.17-.3-.45-.05-.07-.25-.39-.2-.31-.09-.14-.29-.46-.08-.11-.21-.34-.24-.39-.05-.07-.28-.45-.13-.21-.15-.25-.28-.45-.02-.05-.25-.41-.21-.35-.06-.11-.27-.45-.12-.21-.14-.25-.26-.45-.06-.1-.2-.36-.25-.45h0l-.25-.46-.2-.37-.04-.08-.25-.46-.16-.31-.08-.14-.24-.46-.14-.28-.09-.17-.23-.46-.14-.28-.08-.17-.23-.46-.14-.3-.07-.15-.22-.46-.17-.36-.04-.09-.21-.46-.2-.45h0l-.2-.46-.2-.46-.06-.14-.13-.31-.19-.46-.13-.33-.05-.12-.18-.46-.18-.45-.05-.13-.12-.33-.17-.45-.16-.46h0l-.16-.45-.16-.46-.14-.41v-.04l-.16-.46-.14-.45-.14-.46v-.02l-.14-.43-.13-.46-.13-.45-.07-.24-.06-.22-.12-.45-.11-.46-.12-.45-.04-.2-.06-.26-.11-.46-.1-.45-.09-.46-.1-.45h0l-.08-.46-.09-.45-.08-.46-.08-.45-.07-.46-.05-.37-.02-.08-.06-.46-.06-.45-.06-.46-.05-.45-.05-.46-.04-.45-.04-.46-.04-.45-.03-.46v-.13l-.03-.32-.02-.46-.02-.46-.02-.45-.02-.46v-1.36s0-.91,0-.91l.02-.46v-.45l.03-.46.02-.45.03-.46v-.26l.02-.19.04-.46.03-.45.04-.46.05-.45.04-.46.06-.45.05-.46.06-.46.06-.45.02-.1.05-.36.07-.45.07-.46.08-.45.08-.46.08-.45.02-.1.07-.36.09-.45.1-.46.1-.45.1-.44v-.02l.11-.45.11-.46.11-.45.12-.46v-.02l.12-.43.12-.46.13-.45.09-.3h0Z"/><path class="cls-8" d="M167.94,34.56h.46l.45-.02h3.65s.45.01.45.01h.17s.74.01.74.01l.46.02h.45l.46.02.45.02h.46l.45.02.46.02h.45l.46.03.45.02h.46l.45.03.46.02.46.02.45.02.46.02.45.02.46.02.45.02.46.02.45.02.46.02.45.02.46.02.45.02.3.02h.16l.45.02.46.03.45.02.46.02.45.02.46.02.45.02.46.02.46.03.45.02.46.02.45.02.46.02.45.02.46.02.45.02.46.02.45.02.46.02.45.02.46.02h.26l.19.02.46.02.45.02h.46l.45.03.46.02.45.02.46.02h.46l.45.03.46.02h.45l.46.03.45.02h.46l.45.03h.46l.45.03h.46l.45.03h.46l.45.03h.46l.45.03h.46l.45.03h.46l.45.02.39.02h.53l.45.03h.46l.45.02.46.02h.45l.46.02.45.02h.46l.45.03h.46l.45.03h.46l.45.02.46.02h.45l.46.03h.45l.46.03.45.02h.46l.45.03h.46l.46.03.45.02.46.02h.45l.46.03.45.02h.22l.24.02.45.02.46.02.45.02.46.02.45.03.46.02.45.02.46.02.45.03.46.02.45.03.46.03.45.02.46.03.46.03.45.03.46.03.42.03h.03l.46.03.45.03.46.04.45.03.46.04.45.03.46.04.45.04.46.04.45.04.46.04.45.04h.13l.33.04.45.05.46.04.45.05.46.05.46.04.45.05.46.06.45.05.32.04h.14l.45.07.46.05.45.06.46.06.45.06.46.06.45.07.19.02.27.04.45.07.46.06.45.07.46.07.45.07.46.08h0l.45.07.46.08.46.08.45.08.46.08.35.06.1.02.46.08.45.09.46.09.45.09.45.09h0l.45.09.46.1.45.09.46.1.32.07.13.03.46.1.45.11.46.1.45.11h.04l.42.11.45.11.46.11.46.12h.06l.39.11.46.12.45.12.42.12h.04l.45.13.46.13.45.13.23.06.23.07.45.13.46.14.4.12h.05l.46.15.45.15.46.14h.04l.41.15.46.14.45.15.08.03.38.13.45.15.46.16h.04l.42.16.45.16.42.15h.04l.45.18.46.17.28.11.17.06.46.17.45.18.11.04.35.14.45.18.34.14.12.04.45.19.46.19.08.03.37.16.46.19.25.11.2.08.46.2.38.17.07.03.46.21.45.2.04.02.42.19.46.21.1.05.35.16.46.22.16.08.29.14.46.22.18.09.27.13.46.23.19.1.26.13.46.23.17.09.28.15.46.24.13.07.32.17.46.24.08.04.37.21.46.25h0l.45.25.37.2.09.05.45.26.27.15.19.11.45.26.14.08.32.19.46.27h0l.45.27.31.18.15.09.45.28.14.09.32.19.42.27.03.02.46.28.23.15.22.14.46.3.03.02.42.27.27.18.19.12.45.3.05.04.41.27.27.18.18.13.46.31.02.02.43.29.23.16.23.16.42.3.03.02.46.32.15.11.3.22.33.24.13.09.45.34.04.02.42.31.2.15.26.19.34.26.11.08.46.35.03.03.42.32.17.13.29.22.3.24.15.12.43.33.03.03.45.36.09.07.37.3.19.15.26.22.3.24.16.13.39.32.06.05.46.38.03.03.42.36.12.1.34.28.2.17.25.22.27.24.19.16.34.29.11.1.41.36.05.04.45.41h0l.45.4.06.06.4.35.11.1.34.32.15.14.31.27.19.18.26.24.23.22.23.21.26.24.19.19.29.27.17.16.3.29.15.14.33.32.13.12.34.33.11.12.35.34.11.1.35.35.1.1.36.36.1.1.35.35.1.11.35.35.11.11.34.35.11.11.33.34.13.13.31.33.14.15.3.3.16.17.27.29.18.19.25.26.21.23.21.23.25.26.17.19.28.3.14.16.32.34.1.11.35.39.06.07.4.44h.01l.4.47.04.04.37.41.09.11.31.35.14.17.25.28.21.24.19.22.26.31.13.14.33.39.05.07.39.45v.02l.38.44.09.11.29.35.16.19.22.26.24.3.13.16.32.4.05.05.37.46.04.05.32.4.13.17.23.29.23.29.13.16.32.42.04.04.35.45.07.09v113.84l-.34.34-.12.11-.35.34-.1.1-.37.36-.09.08-.4.37-.05.05-.43.41-.03.02-.45.41-.02.02-.44.4-.07.06-.38.34-.13.11-.33.29-.19.17-.26.22-.27.23-.19.16-.35.3-.1.09-.45.36h-.01l-.45.39-.09.07-.37.3-.2.15-.25.21-.32.25-.14.11-.45.35h0l-.46.35-.13.1-.32.24-.29.22-.17.12-.44.33h-.02l-.45.34-.16.12-.3.21-.34.24-.11.08-.46.32-.08.06-.37.25-.3.2-.16.11-.45.31-.06.04-.4.26-.3.19-.15.1-.46.3-.09.06-.36.23-.36.22-.1.06-.45.29-.19.11-.27.16-.45.28h-.03l-.43.27-.34.2-.11.07-.46.26-.21.12-.24.14-.46.26-.11.06-.35.19-.45.25h-.03l-.43.25-.42.22-.03.02-.46.24-.38.19-.07.04-.46.24-.36.18-.09.04-.46.23-.37.18-.08.04-.46.22-.41.2-.04.02-.46.21-.45.21-.03.02-.43.19-.45.2-.14.06-.32.14-.45.2-.28.12-.18.07-.45.19-.46.19h0l-.46.19-.45.18-.22.09-.24.09-.45.17-.46.18h-.03l-.42.17-.46.17-.36.13-.09.03-.46.16-.45.16-.3.1-.16.06-.45.15-.46.15-.3.1-.15.05-.46.14-.45.14-.4.12-.06.02-.45.14-.46.13-.45.13-.13.04-.33.09-.45.13-.46.12-.43.11h-.03l-.45.13-.46.11-.45.11-.43.11h-.03l-.45.11-.46.11-.45.1-.46.1-.15.03-.3.07-.46.09-.45.1-.46.09-.45.09-.13.02-.33.06-.45.08-.46.09-.45.08-.46.07-.44.07h0l-.46.08-.46.07-.45.07-.46.06-.45.07-.46.06-.38.05h-.07l-.46.07-.45.05-.46.06-.45.05-.46.05-.45.05-.46.04-.45.05-.38.03h-.08l-.45.05-.46.04-.45.04-.46.04-.45.03-.46.03-.46.03-.45.03-.46.03-.45.03-.46.02-.45.03-.46.02-.45.02-.41.02h-.05l-.45.02-.46.02h-.45l-.46.03h-.45l-.46.02-.45.02h-.46l-.45.02h-.91l-.46.02h-1.37s-.45,0-.45,0h-5.92s-.91,0-.91,0h-.91l-.46-.02h-1.82l-.45-.02h-1.82l-.46-.02h-2.27s-.46,0-.46,0h-2.73s-4.1,0-4.1,0h-.45s-.91,0-.91,0l-.46.02h-.91l-.45.02h-.46l-.45.02h-.46l-.46.02-.45.02h-.46l-.45.03h-.46l-.45.03-.46.02-.45.02-.46.02-.45.03-.46.02-.45.03-.46.02-.45.03-.46.03-.45.03-.33.02h-.13l-.45.05-.46.03-.45.04-.46.04-.46.04-.45.04-.46.04-.45.04-.46.05-.45.05-.39.04h-.07l-.45.06-.46.05-.45.06-.46.05-.45.06-.46.06-.45.06-.39.06h-.07l-.45.07-.46.07-.45.07-.46.07-.45.07-.46.08-.14.02-.31.05-.46.08-.46.09-.45.08-.46.08-.36.08h-.09l-.46.1-.45.09-.46.1-.45.1-.3.06-.16.04-.45.1-.46.1-.45.11-.46.1h0l-.44.11-.46.12-.45.11-.46.12h0l-.45.12-.46.12-.45.13-.31.09-.15.04-.46.13-.45.13-.46.14h-.04l-.41.14-.46.14-.45.14-.14.05-.32.1-.45.15-.46.15-.15.05-.3.1-.46.16-.45.16-.1.04-.36.13-.45.16-.44.16h-.02l-.45.18-.46.18-.26.1-.19.07-.46.18-.45.19h-.04l-.42.18-.46.19-.22.1-.23.1-.46.19-.37.16-.08.04-.46.2-.45.21h-.03l-.43.2-.45.21-.11.05-.35.17-.45.21-.16.08-.3.14-.45.23-.18.08-.28.14-.45.23-.18.09-.28.14-.45.24-.15.08-.31.16-.45.24-.1.05-.36.19-.45.25-.04.02-.42.23-.4.22-.06.03-.45.26-.29.17-.17.09-.45.26-.17.1-.29.17-.45.27-.04.02-.42.25-.34.2-.11.07-.46.28-.17.11-.28.17-.46.28h0l-.45.29-.27.17-.19.12-.45.29-.07.04-.39.26-.31.2-.14.09-.46.3-.09.06-.36.25-.32.21-.14.09-.45.31-.09.05-.37.26-.29.2-.17.11-.45.32-.04.02-.42.3-.23.16-.22.16-.42.29-.04.03-.45.32-.15.11-.31.22-.32.24-.13.09-.46.33-.04.03-.41.3-.21.16-.25.18-.37.27-.08.06-.46.34-.07.06-.38.28-.23.17-.23.17-.38.29-.07.05-.46.35-.07.05-.38.29-.22.17-.24.18-.35.27-.1.08-.46.35-.04.03-.42.32-.17.13-.28.22-.31.24-.15.11-.44.34v.02l-.47.35-.11.09-.34.26-.25.19-.21.17-.37.29-.08.06-.46.36-.05.03-.4.32-.18.14-.28.21-.31.24-.14.12-.44.34h-.02l-.45.37-.12.09-.34.26-.24.19-.21.16-.38.3-.08.06-.45.35-.06.04-.4.31-.19.15-.26.2-.34.25-.12.1-.46.34v.02l-.45.33-.16.12-.3.23-.3.23-.15.11-.46.34h0l-.45.34-.16.12-.3.22-.32.23-.13.1-.46.34-.03.02-.42.31-.2.14-.26.19-.37.27-.08.06-.46.32-.1.07-.35.25-.3.21-.16.11-.45.32-.04.02-.42.29-.25.17-.2.14-.46.31h0l-.44.3-.24.16-.22.14-.46.3-.02.02-.43.27-.28.18-.18.11-.45.29-.09.06-.37.22-.37.23-.08.05-.46.28-.22.13-.23.14-.46.26-.08.05-.37.22-.43.24h-.03l-.45.27-.34.18-.12.07-.45.24-.28.15-.18.09-.45.24-.25.12-.21.11-.45.22-.26.13-.2.09-.45.22-.31.14-.15.07-.45.21-.42.18-.04.02-.46.19-.45.19-.13.05-.33.14-.45.18-.37.14-.09.03-.45.17-.46.16-.27.09-.18.07-.46.15-.45.15-.31.09-.15.05-.45.13-.46.13-.45.12-.1.02-.36.1-.45.11-.46.1-.45.1-.27.05-.19.04-.45.08-.46.08-.46.07-.45.07-.46.06-.45.05h-.01l-.45.05-.45.04-.46.03-.45.03-.46.02h-.45l-.46.02h-.45l-.46-.02h-.45l-.46-.04-.45-.03-.46-.03-.45-.05-.13-.02-.33-.03-.45-.07-.46-.07-.46-.07-.45-.09-.46-.09-.12-.03-.33-.07-.46-.12-.45-.12-.46-.12-.07-.03-.38-.11-.46-.15-.45-.16-.1-.03-.36-.13-.45-.18-.36-.15-.1-.04-.45-.2-.46-.2h-.02l-.43-.22-.46-.24h-.02l-.43-.24-.4-.22-.06-.04-.45-.27-.25-.15-.21-.13-.46-.3-.03-.02-.42-.3-.23-.16-.23-.17-.37-.28-.08-.06-.46-.37-.03-.03-.42-.36-.11-.09-.35-.31-.15-.15-.3-.28-.18-.17-.28-.29-.16-.17-.29-.31-.13-.14-.33-.37-.07-.09-.38-.45h0l-.36-.46-.1-.14-.23-.32-.22-.31-.1-.14-.31-.46-.05-.08-.23-.37-.22-.38-.05-.08-.26-.45-.15-.29-.09-.17-.22-.45-.14-.31-.07-.15-.2-.45-.19-.46h0l-.17-.45-.17-.46-.11-.36-.04-.09-.13-.46-.13-.45-.12-.46-.04-.19-.06-.26-.1-.46-.08-.45-.07-.46-.07-.46-.05-.45-.03-.24-.02-.22-.03-.45-.03-.46v-.45l-.02-.46v-.91l.03-.45.03-.46.04-.45v-.06l.04-.4.06-.45.06-.46.07-.45.08-.46.08-.45.07-.32.03-.14.1-.45.11-.46.12-.46.1-.36.02-.09.13-.46.14-.45.15-.46v-.04l.15-.41.16-.46.16-.43v-.02l.18-.46.18-.45.09-.22.1-.24.19-.45.17-.38.03-.08.21-.45.21-.46h0l.22-.45.22-.46.02-.02.21-.43.24-.46h0l.24-.45.22-.39.03-.07.26-.46.16-.29.1-.16.26-.46.1-.16.17-.29.28-.46h0l.28-.45.18-.29.1-.17.29-.45.06-.09.24-.37.22-.33.08-.12.3-.46.07-.1.24-.35.22-.32.1-.14.31-.45.04-.06.29-.4.17-.24.15-.21.3-.42.03-.04.34-.45.09-.13.24-.33.22-.28.13-.17.32-.43.02-.03.35-.46.09-.11.26-.34.19-.25.16-.21.3-.37.06-.08.36-.46.03-.03.33-.42.13-.15.24-.31.21-.26.16-.19.3-.37.07-.09.37-.45v-.02l.38-.44.09-.11.28-.34.17-.21.21-.25.25-.29.13-.16.32-.38.07-.08.38-.45h.01l.38-.46.07-.09.31-.36.15-.17.24-.29.21-.25.18-.2.28-.33.11-.13.34-.4.05-.06.4-.45v-.02l.39-.44.08-.08.31-.37.14-.16.26-.3.2-.22.19-.23.26-.3.14-.16.32-.37.07-.08.38-.44.02-.02.39-.45.05-.06.34-.4.11-.12.29-.33.17-.2.22-.26.23-.26.16-.19.3-.34.1-.12.35-.41.04-.04.39-.46.03-.03.36-.42.09-.11.3-.35.16-.19.23-.26.22-.27.16-.19.3-.35.09-.1.36-.44.02-.02.38-.46.06-.06.32-.39.13-.16.25-.3.21-.25.17-.2.29-.35.08-.11.37-.44h.01l.37-.47.08-.09.29-.36.16-.21.2-.25.26-.31.11-.14.34-.43.02-.03.36-.45.08-.1.28-.36.17-.22.18-.23.28-.36.08-.1.35-.45.02-.04.32-.42.14-.18.21-.27.24-.33.1-.13.34-.45.02-.03.31-.43.14-.19.2-.27.26-.36.07-.09.32-.46.06-.08.27-.37.19-.27.13-.19.31-.45v-.02l.32-.44.15-.22.16-.23.29-.44.02-.02.3-.45.14-.21.16-.25.3-.44h0l.3-.47.15-.24.14-.21.29-.46.03-.05.25-.4.2-.33.08-.13.28-.45.1-.16.17-.3.27-.45v-.02l.27-.44.2-.33.07-.13.26-.45.12-.22.13-.24.26-.45.07-.13.18-.33.24-.45.03-.05.22-.41.24-.45h0l.23-.46.22-.43.02-.02.23-.46.21-.43v-.02l.23-.46.22-.45h0l.22-.46.21-.45.03-.06.18-.4.2-.45.07-.16.14-.3.2-.45.12-.29.07-.17.19-.46.19-.45h0l.19-.46.18-.45.09-.23.09-.23.17-.45.18-.46v-.05l.17-.4.16-.46.14-.38.02-.07.16-.46.16-.45.11-.34.04-.12.15-.45.15-.46.12-.38.02-.07.15-.46.13-.45.14-.46.02-.06.11-.39.13-.46.13-.46.08-.31.04-.14.12-.46.12-.45.11-.46.07-.26.04-.19.11-.46.11-.45.1-.46.09-.41v-.04l.11-.46.09-.45.1-.46.09-.45.07-.37v-.09l.1-.45.08-.46.08-.45.07-.46.08-.45.04-.28.03-.18.07-.46.06-.45.07-.46.06-.45.06-.46.05-.45.06-.45h0l.05-.46.05-.46.04-.45.05-.46.04-.45.04-.46.04-.45.03-.46.03-.45.04-.46.02-.45.02-.34v-.12l.03-.45.02-.46.02-.46.02-.45v-.46l.03-.45v-.46l.02-.45v-1.37s.01-1.36.01-1.36l-.02-.46v-.91l-.03-.45v-.46l-.03-.45-.02-.46-.02-.45-.02-.46v-.16l-.02-.3-.03-.45-.03-.46-.03-.45-.03-.46-.04-.45-.03-.46-.04-.45-.04-.46-.04-.45-.04-.46-.05-.45-.04-.42v-.04l-.06-.45-.05-.46-.05-.45-.06-.46-.05-.45-.06-.46-.06-.45-.06-.46v-.04l-.07-.41-.06-.46-.07-.46-.07-.45-.07-.46-.07-.45-.05-.31-.03-.15-.07-.45-.08-.46-.08-.45-.08-.46-.09-.45-.03-.17-.05-.29-.09-.45-.09-.46-.09-.45-.09-.46-.04-.22-.05-.23-.1-.46-.1-.45-.09-.46-.1-.45-.02-.07-.09-.39-.1-.46-.1-.45-.11-.46-.05-.22-.06-.23-.11-.46-.11-.45-.11-.46-.07-.26-.05-.19-.11-.46-.12-.45-.12-.46-.06-.2-.06-.25-.12-.46-.13-.45-.12-.46-.02-.07-.11-.38-.13-.46-.13-.45-.09-.32-.04-.14-.13-.45-.13-.46-.14-.46v-.05l-.13-.4-.14-.46-.14-.45-.06-.19-.08-.27-.14-.45-.14-.46-.09-.29-.05-.16-.15-.46-.14-.45-.12-.35-.03-.11-.15-.45-.15-.46-.12-.38-.03-.07-.15-.46-.15-.45-.13-.39-.02-.07-.15-.45-.16-.46-.12-.37-.03-.08-.16-.46-.15-.46-.12-.33-.04-.12-.16-.46-.15-.45-.1-.29-.06-.17-.16-.45-.16-.46-.08-.22-.08-.23-.16-.46-.16-.45-.05-.16-.11-.3-.16-.45-.16-.46-.03-.08-.13-.37-.16-.46-.16-.45h0l-.16-.46-.16-.45-.14-.4-.02-.06-.16-.45-.16-.46-.11-.34-.05-.12-.15-.45-.16-.46-.1-.28-.06-.17-.15-.46-.16-.45-.08-.26-.07-.2-.15-.45-.16-.46-.08-.25-.07-.2-.15-.46-.15-.45-.08-.28-.06-.18-.15-.45-.14-.46-.11-.34-.04-.11-.14-.46-.14-.45-.13-.46h-.01l-.13-.45-.13-.46-.14-.46-.05-.19-.08-.26-.12-.46-.13-.45-.12-.46h-.01l-.11-.45-.12-.46-.12-.45-.1-.42v-.04l-.12-.45-.11-.46-.1-.45-.1-.46-.03-.11-.07-.34-.1-.46-.09-.45-.09-.46-.08-.45-.02-.11-.06-.35-.08-.45-.08-.46-.07-.46-.07-.45-.06-.46-.04-.29-.02-.16-.05-.46-.05-.45-.05-.46-.04-.45-.04-.46-.03-.45-.03-.46-.03-.45-.02-.46v-.45l-.02-.46v-.91s-.01-.45-.01-.45l.02-.46.02-.45.02-.46.03-.46.03-.45.04-.46.05-.45.05-.46.05-.45.07-.46v-.09l.07-.36.08-.46.08-.45.09-.46.1-.45.05-.21.06-.25.11-.45.12-.46.13-.45.03-.12.1-.34.15-.45.15-.46.06-.16.1-.29.17-.46.18-.45h0l.19-.46.2-.46.07-.15.14-.3.21-.46.1-.2.13-.25.24-.46.09-.16.16-.29.27-.46.03-.05.24-.4.21-.34.08-.12.3-.45.08-.12.23-.34.22-.31.11-.14.34-.46h.01l.35-.45.1-.13.27-.33.19-.22.2-.23.25-.28.16-.18.3-.32.13-.13.32-.34.13-.12.33-.32.13-.13.32-.3.18-.16.28-.25.23-.21.22-.18.32-.27.14-.11.43-.35h.02l.46-.36.12-.09.33-.24.31-.22.15-.1.45-.31.06-.04.4-.26.31-.2.14-.09.46-.27.16-.09.3-.18.45-.25.05-.03.41-.22.44-.23h.01l.46-.23.45-.23h0l.46-.21.45-.2.09-.04.37-.16.45-.19.26-.11.2-.08.45-.17.46-.17.08-.03.37-.14.46-.16.45-.15h.03l.43-.15.45-.14.46-.13.14-.04.31-.09.46-.13.46-.12.45-.11h.02l.44-.12.45-.1.46-.1.45-.1.21-.04.25-.06.45-.08.46-.09.45-.08.46-.08.43-.07h.02l.46-.07.45-.07.46-.06.45-.06.46-.06.45-.06.46-.05.27-.02.18-.02.46-.05.46-.04.45-.04.46-.04.45-.03.46-.03.45-.03.46-.03.45-.03.46-.02.45-.02.46-.02h.45l.46-.03h.45l.46-.02h.45l-.02-.07Z"/><path class="cls-5" d="M221.66,57.78l.46-.03.45-.03.46-.02.45-.03.46-.02.45-.02.46-.02.45-.02h.46l.45-.03h.46l.45-.02h.46l.45-.02h.92s.45,0,.45,0h2.73l.46.02h.45l.46.02h.45l.46.03.45.02.46.02.45.02.46.02.45.02.46.03.45.03.46.03h.11l.35.03.45.04.46.03.45.04.46.04.45.04.46.05.45.04.46.05.45.05.45.05h0l.45.06.46.05.45.06.46.06.45.07.46.06.45.07.2.03.26.04.45.07.46.07.46.08.45.08.46.08.19.03.26.05.46.09.45.08.46.09.45.1.25.05.21.04.45.1.46.1.45.1.46.1h.05l.4.11.46.11.45.11.46.11.1.03.35.09.46.12.45.12.46.12h0l.46.13.45.13.46.13.23.07.22.06.46.14.45.14.36.11.1.03.45.15.46.14.4.14h.05l.46.17.45.15.38.13.08.03.45.16.46.17.28.1.17.06.46.17.45.17.14.05.32.13.45.17.4.16.06.02.46.19.45.18.15.07.31.12.45.19.32.14.14.06.45.19.46.2h0l.45.21.46.2.1.05.35.16.46.21.17.09.28.13.46.21.22.11.23.12.46.22.24.12.21.1.46.23.23.12.22.12.46.23.2.11.25.13.46.24.15.08.31.17.45.24.08.05.38.2.44.25h0l.46.26.34.2.11.06.46.27.22.12.23.14.46.27.08.05.37.22.39.23.07.05.45.27.22.14.24.15.45.28.04.02.42.27.3.19.15.1.46.29.1.06.35.24.34.22.12.08.45.3.11.08.35.23.33.22.13.09.45.31.08.06.38.26.27.19.18.13.46.32h.01l.44.32.19.14.27.19.36.27.09.06.46.34.07.05.38.29.23.17.23.17.37.28.08.06.46.35.06.05.39.3.2.15.26.21.32.25.13.11.44.34.02.02.45.36.1.08.36.29.2.16.25.21.3.25.16.13.39.32.06.06.46.38.02.02.44.36.1.09.35.3.18.16.28.24.25.22.2.17.32.28.14.12.37.34.08.06.43.39.03.02.45.41.03.03.43.39.07.06.38.36.11.1.35.32.14.13.31.29.18.17.28.26.2.19.25.25.22.21.24.22.23.23.22.22.25.24.21.2.25.25.2.2.26.26.2.2.25.25.2.21.25.25.21.21.24.24.22.23.22.23.23.24.21.21.25.27.18.19.27.29.16.17.3.32.12.13.33.36.09.1.37.4.05.05.4.45h.01l.41.46.04.05.36.41.09.1.31.35.15.17.25.29.2.23.19.22.27.32.12.14.33.39.05.06.39.46.02.03.35.42.1.13.28.33.18.22.19.23.26.34.1.12.36.45h0l.36.46.09.12.27.33.19.26.16.2.3.39.04.07.35.45.06.08.28.38.18.24.15.21.3.41.04.05.32.45.1.13.23.33.22.31.1.14.32.46.04.05.27.4.18.26.13.2.31.45.02.03.28.43.17.26.13.19.3.46.03.04.26.41.19.31.1.15.28.45.08.12.2.34.25.41.03.04.28.46.15.26.12.2.26.45.07.12.2.34.26.45h0l.25.46.2.36.05.09.25.46.16.29.09.16.24.46.12.23.12.22.23.46.11.21v57.95l-.07.11-.27.45-.12.2-.15.26-.28.45-.02.03-.27.43-.19.28-.11.17-.3.46-.04.07-.26.38-.2.29-.12.17-.31.45-.02.03-.31.43-.15.2-.18.26-.27.36-.07.09-.35.46-.04.05-.31.4-.14.18-.22.28-.24.29-.13.16-.32.4-.05.06-.38.45-.03.03-.37.43-.08.1-.31.35-.15.17-.26.29-.19.21-.22.24-.24.26-.19.2-.26.28-.17.17-.29.3-.15.16-.3.31-.15.14-.31.31-.15.15-.31.3-.16.15-.29.28-.19.18-.27.25-.22.2-.23.22-.26.24-.2.17-.31.29-.14.12-.39.33-.07.06-.45.39h0l-.45.38-.09.08-.36.3-.2.16-.26.2-.31.25-.14.11-.44.35h-.02l-.45.36-.13.09-.33.25-.28.21-.17.13-.45.32h0l-.45.33-.19.13-.27.19-.38.26-.07.05-.46.31-.15.1-.31.2-.38.25-.07.05-.46.29-.17.12-.28.17-.45.28h0l-.45.28-.29.18-.17.1-.45.27-.15.08-.31.18-.45.26-.03.02-.43.24-.39.21-.06.04-.46.25-.32.17-.13.07-.46.24-.28.15-.17.08-.46.23-.27.14-.18.09-.46.23-.29.14-.16.08-.46.21-.34.16-.12.05-.45.21-.43.2h-.03l-.45.21-.46.2-.1.04-.35.15-.46.19-.27.12-.18.07-.46.19-.45.18h-.04l-.42.18-.45.17-.31.12-.15.05-.45.17-.46.17-.18.06-.27.1-.46.16-.45.16-.12.04-.34.11-.45.15-.46.15-.13.04-.32.11-.46.14-.46.14-.23.07-.22.07-.46.13-.45.13-.43.12h-.03l-.45.14-.46.12-.45.12-.29.08-.17.04-.45.12-.46.11-.45.11-.29.07-.17.04-.45.11-.46.1-.45.11-.46.1h0l-.44.09-.46.1-.45.09-.46.09-.41.08h-.05l-.45.1-.46.08-.45.09-.46.08-.45.07-.21.04-.25.04-.45.08-.46.07-.45.07-.46.07-.45.06-.43.06h-.03l-.45.07-.46.06-.45.06-.46.06-.45.06-.46.05-.45.05-.43.05h-.03l-.46.05-.45.05-.46.05-.45.04-.46.04-.45.04-.46.04-.45.04-.46.04-.45.04-.39.03h-.07l-.45.03-.46.03-.45.03-.46.03-.45.03-.46.03-.45.02-.46.03-.45.02-.46.02-.46.02-.45.02-.46.02-.45.02h-.46l-.45.03h-.46l-.45.03h-.46l-.45.02h-.46l-.35.02h-.56l-.45.02h-1.37l-.45.02h-3.65s-1.82,0-1.82,0h-.45s-1.37,0-1.37,0h-3.18s-.46,0-.46,0h-1.82s-.45,0-.45,0h-2.27s-.46,0-.46,0l-.45-.02h-1.37s-.45,0-.45,0h-1.37s-.45,0-.45,0h-2.28s-.46,0-.46,0h-4.09s-2.73,0-2.73,0h-.46s-1.82,0-1.82,0h-2.28s-.45,0-.45,0l-.46.02h-.91s-.45,0-.45,0l-.46.02h-.45l-.46.02h-.45l-.46.02h-.2l-.25.02h-.46l-.45.02-.46.02h-.46l-.45.03h-.46l-.45.03-.46.02h-.45l-.46.03-.45.02-.46.02-.45.02-.46.02-.45.02-.46.03-.45.02-.46.02-.45.03-.46.02-.45.03-.46.02-.4.03h-.05l-.46.03-.46.02-.45.03-.46.03-.45.03-.46.03-.45.03-.46.03-.45.03-.46.04-.45.03-.46.03-.45.04-.46.03-.26.02-.19.02-.46.03-.45.04-.46.03-.45.04-.46.03-.45.04-.46.04-.46.04-.45.03-.46.04-.45.04-.42.04h-.04l-.45.04-.46.04-.45.03-.46.04-.45.04-.46.04-.45.03-.46.04-.45.04-.46.04-.45.03-.46.04h-.05l-.4.03-.46.03-.45.04-.46.03-.46.03-.45.03-.46.02-.45.03-.46.02-.45.03h-.46l-.45.03-.46.02h-1.82s-.45,0-.45,0l-.46-.02-.45-.02-.46-.02-.45-.03-.46-.04-.45-.04-.46-.06-.46-.07-.35-.06-.1-.02-.46-.09-.45-.12-.46-.13-.3-.09-.15-.06-.46-.18-.45-.21h-.03l-.43-.25-.34-.21-.11-.09-.46-.35-.02-.02-.43-.42-.03-.03-.38-.46-.05-.07-.26-.39-.19-.34-.06-.11-.21-.46-.18-.45h0l-.14-.46-.13-.45-.1-.46-.08-.45h0l-.07-.46-.05-.45-.04-.46-.03-.45-.02-.46-.02-.45v-1.37l.03-.45.02-.46.02-.45.03-.46.03-.46.04-.45.04-.46.02-.18.02-.27.05-.46.04-.45.05-.46.05-.45.05-.46.06-.45.05-.46.06-.45.02-.2.03-.26.06-.45.06-.46.06-.45.06-.46.06-.45.06-.46.06-.45v-.08l.06-.38.06-.46.06-.45.06-.46.06-.45.06-.46.06-.45.04-.36v-.1l.07-.45.06-.46.06-.45.06-.46.05-.45.06-.46.06-.45.04-.35v-.11l.06-.45.06-.46.05-.45.05-.46.06-.45.05-.46.05-.46.04-.45.03-.26.02-.2.05-.45.05-.46.04-.45.05-.46.04-.45.04-.46.05-.45.04-.46.04-.45.04-.46h0l.04-.45.03-.46.04-.45.04-.46.03-.45.03-.46.04-.45.03-.46.03-.46.03-.45.03-.46.03-.45.02-.46.03-.45v-.06l.02-.4.03-.45.02-.46.02-.45.03-.46.02-.45.02-.46v-.45l.03-.46.02-.45v-.46l.03-.45v-.46l.03-.45v-.46l.02-.46v-.45l.02-.46v-.91s0-.45,0-.45l.02-.46v-6.37s0-.46,0-.46v-.91l-.02-.45v-.46l-.02-.45v-.46l-.02-.45-.02-.46v-.45l-.02-.46-.02-.45v-.46l-.03-.45v-.46l-.03-.45-.02-.46-.02-.45-.02-.46-.02-.45-.02-.46-.02-.46-.02-.45h0l-.02-.46-.02-.45-.02-.46-.03-.45-.02-.46-.03-.45-.02-.46-.03-.45-.02-.46-.03-.45-.03-.46-.02-.45-.03-.46-.03-.45-.03-.46-.03-.45-.03-.46v-.23l-.03-.22-.03-.46-.03-.45-.03-.46-.03-.46-.03-.45-.03-.46-.04-.45-.03-.46-.03-.45-.04-.46-.03-.45-.03-.46-.04-.45-.02-.27v-.19l-.05-.45-.03-.46-.04-.45-.03-.46-.04-.45-.03-.46-.04-.45-.03-.46-.04-.45-.03-.46-.04-.46-.03-.45-.02-.23-.02-.23-.04-.45-.03-.46-.04-.45-.03-.46-.04-.45-.03-.46-.04-.45-.03-.46-.04-.45-.03-.46-.04-.45-.03-.46-.02-.2-.02-.25-.03-.46-.03-.45-.04-.46-.03-.45-.03-.46-.03-.46-.03-.45-.04-.46-.03-.45-.03-.46-.02-.45-.03-.46-.03-.45-.03-.46v-.09l-.02-.36-.03-.46-.02-.45-.03-.46-.02-.45-.02-.46-.02-.45-.02-.46-.02-.45-.02-.46v-.45l-.03-.46v-.46l-.02-.45v-.46l-.02-.45v-1.82s0-1.37,0-1.37v-.45s0-.46,0-.46l.02-.45.02-.46v-.45l.03-.46.02-.45.03-.46.03-.45.03-.46.03-.46.04-.45.04-.46v-.06l.04-.39.05-.46.06-.45.05-.46.06-.45.07-.46.07-.45.06-.39v-.07l.09-.45.09-.46.09-.45.1-.46.09-.41v-.04l.12-.46.11-.45.12-.46.1-.36.03-.09.14-.46.14-.46.15-.44h0l.16-.47.17-.45.12-.32.05-.14.19-.45.2-.46.02-.04.18-.41.22-.46.05-.1.18-.35.24-.46.04-.07.21-.38.24-.42.03-.04.28-.45.15-.24.14-.22.31-.45h0l.32-.46.14-.18.21-.27.24-.32.12-.14.34-.42.03-.03.4-.46.03-.03.39-.43.06-.06.38-.39.08-.08.38-.38.07-.06.42-.39.04-.03.45-.41.02-.02.44-.36.11-.09.34-.28.23-.18.23-.17.37-.28.08-.06.46-.33.1-.07.35-.24.32-.21.14-.09.45-.29.12-.08.34-.2.41-.25.04-.03.46-.26.3-.17.15-.08.46-.25.23-.12.22-.12.46-.23.22-.11.24-.12.45-.21.25-.12.21-.1.45-.2.35-.16.11-.05.45-.19.46-.19.05-.02.4-.17.46-.18.27-.11.18-.07.46-.17.45-.17.12-.04.34-.13.45-.16.46-.16h.04l.41-.15.46-.15.45-.15.05-.02.41-.13.45-.14.46-.14.14-.04.32-.09.45-.14.46-.13.33-.1.12-.03.46-.13.45-.12.46-.12.18-.05.27-.07.46-.12.45-.12.46-.11.14-.04.31-.07.46-.11.45-.11.46-.11.23-.05.22-.05.46-.1.45-.11.46-.1.45-.09h.02l.44-.1.46-.1.45-.09.46-.09.4-.08h.05l.46-.1.45-.09.46-.08.45-.09.46-.08.08-.02.37-.06.46-.08.45-.08.46-.08.45-.08.46-.07h0l.45-.08.46-.07.45-.07.46-.07.45-.07.46-.07.21-.03.25-.03.45-.07.46-.06.45-.06.46-.07.45-.06.46-.05.38-.05h.07l.46-.07.45-.05.46-.06.45-.05.46-.05.45-.05.46-.05.45-.04.34-.04h.12l.45-.05.46-.05.45-.04.46-.04.45-.04.46-.04.46-.03.45-.04.46-.03.45-.03.46-.03.43-.03h.02l-.06-.06Z"/><path class="cls-7" d="M233.95,82.35l.46-.04.45-.04.46-.04.45-.04.46-.03.45-.03.46-.02.45-.02.46-.02h.46l.45-.02h2.73l.46.03h.45l.46.03.45.03.46.02.45.03.46.04.45.04.46.04.45.04.21.02.25.03.45.05.46.05.46.06.45.06.46.06.45.07.46.07h.05l.4.07.46.08.45.08.46.08.45.09.33.06.13.03.45.09.46.1.45.1.46.1.16.04.29.06.46.11.45.12.46.11.18.05.27.07.46.13.46.12.45.13h.02l.44.13.45.14.46.14.16.05.29.09.46.15.45.15.21.07.25.08.45.16.46.15.16.06.29.11.46.16.45.17.04.02.42.15.45.18.31.12.15.06.45.18.46.19.07.03.38.16.46.19.25.1.21.09.45.2.38.17.08.03.45.21.46.21h0l.44.21.46.21.07.04.38.18.46.22.1.05.35.18.46.23.1.05.35.18.46.23.07.04.38.2.46.24.03.02.42.23.42.22.04.03.45.25.33.18.13.07.45.26.22.12.24.14.46.27.08.05.37.22.4.24.06.03.45.27.24.15.22.13.45.29.06.04.4.24.33.21.12.08.46.29.12.09.33.21.37.24.09.06.45.3.14.1.32.21.35.24.1.07.46.32.1.07.35.24.3.21.16.12.45.32.03.02.43.31.19.14.26.2.36.26.1.07.46.34.05.04.4.31.19.15.27.2.32.25.13.1.45.36h.01l.45.36.11.09.35.28.22.18.23.19.32.26.14.12.41.34.04.04.46.38.04.04.41.35.12.1.34.29.18.17.27.23.25.22.21.19.3.27.15.14.35.31.11.1.38.36.07.06.42.39.04.04.44.42h.01l.46.45h0l.45.45h.02l.44.45h.02l.44.46h.01l.44.46h0l.44.46h.02l.42.45.03.04.39.42.07.07.35.38.1.11.32.35.14.15.27.3.18.22.22.24.24.28.15.18.3.34.09.11.37.43.02.03.37.45.06.07.31.39.15.17.22.28.23.3.13.16.33.42.02.03.35.46.08.11.26.34.2.27.14.19.31.43.02.02.33.46.11.16.21.29.24.36.07.1.31.45.08.13.22.33.24.36.06.09.29.46.1.16.18.29.28.44v.02l.28.46.17.28.1.17.26.46.1.16.16.29.26.46.03.06.22.39.24.45h0l.24.46.21.42.02.04.23.45.21.44v.02l.22.45.22.46v.04l.2.41.2.46.07.15.13.3.19.46.13.33.05.12.18.46.18.45.05.14.12.32.16.46.16.45v.03l.16.43.15.45.14.46.02.05.12.4.14.46.13.45.06.25.06.21.12.45.11.46.11.45.06.25.05.21.09.45.1.46.09.45.08.46.04.25.04.2.07.46.07.45.06.46.06.45.05.46.05.46.05.45v.17l.03.29.03.45.03.46.02.45.02.46v.45l.02.46v.91l-.02.45v.46l-.03.45-.03.46-.03.45-.03.4v.06l-.05.45-.05.46-.05.45-.06.46-.06.46-.07.45-.08.46-.04.19-.04.26-.09.46-.1.45-.1.46-.1.45-.02.08-.09.38-.12.45-.13.46-.12.41v.04l-.15.46-.14.45-.15.46v.03l-.16.42-.16.46-.15.39-.02.06-.18.46-.18.45-.07.17-.12.29-.2.46-.14.29-.07.16-.21.46-.17.34-.06.11-.23.46-.17.33-.06.12-.25.46-.14.26-.11.19-.26.46-.09.14-.18.31-.27.44v.02l-.3.45-.16.24-.14.22-.31.45h0l-.32.46-.14.2-.18.25-.27.37-.07.09-.35.45-.04.06-.32.4-.13.17-.24.28-.22.27-.16.19-.3.35-.09.11-.36.4-.05.05-.41.45h0l-.44.46v.02l-.44.44-.03.02-.43.43-.02.02-.46.44h0l-.45.42-.04.03-.42.38-.08.08-.37.32-.16.13-.3.26-.24.2-.21.17-.35.28-.11.09-.45.36h-.02l-.44.34-.16.12-.29.22-.33.24-.13.09-.45.32-.07.04-.39.27-.28.19-.17.11-.46.3-.07.04-.39.25-.34.21-.11.07-.46.27-.19.11-.26.16-.46.26-.07.04-.38.21-.45.25h-.01l-.45.24-.41.21-.05.02-.45.23-.41.21-.05.02-.45.21-.46.22h0l-.44.2-.46.21-.12.05-.33.14-.46.19-.29.12-.16.07-.46.18-.45.18-.08.03-.38.14-.45.17-.41.14-.05.02-.46.16-.45.15-.37.13-.09.02-.45.15-.46.14-.45.14h-.01l-.45.13-.45.13-.46.13-.25.07-.2.05-.46.12-.45.12-.46.11-.23.05-.22.06-.46.1-.45.1-.46.1-.45.09h-.02l-.44.1-.45.08-.46.09-.46.08-.45.08-.21.03-.25.04-.45.08-.46.07-.45.06-.46.07-.45.06-.46.06-.18.02-.27.03-.46.05-.45.05-.46.05-.45.05-.46.04-.45.04-.46.03-.45.04-.46.03-.45.03h-.21l-.25.03-.46.02-.45.03-.46.02h-.45l-.46.03h-.45l-.46.02h-.45l-.46.02h-3.18l-.46-.02h-.45l-.46-.02-.45-.02-.46-.02h-.46l-.45-.04-.46-.02-.34-.02h-.11l-.46-.03-.45-.03-.46-.03-.45-.03-.46-.03-.45-.04-.46-.03-.45-.04-.46-.04-.45-.04-.46-.05-.45-.04-.2-.02-.26-.03-.45-.05-.46-.05-.45-.05-.46-.05-.46-.06-.45-.05-.46-.06-.41-.06h-.04l-.46-.06-.45-.07-.46-.06-.45-.07-.46-.06-.45-.07-.37-.06-.09-.02-.45-.07-.46-.07-.45-.08-.46-.08-.45-.08-.35-.06-.11-.02-.45-.08-.46-.08-.45-.09-.46-.09-.46-.09h-.02l-.43-.09-.46-.09-.45-.1-.46-.1-.38-.08h-.07l-.46-.12-.45-.1-.46-.1-.45-.11-.1-.02-.36-.09-.45-.11-.46-.11-.45-.12-.12-.03-.34-.09-.45-.12-.46-.12-.45-.12h0l-.45-.13-.45-.13-.46-.13-.23-.07-.23-.06-.45-.14-.46-.14-.35-.11-.1-.04-.46-.14-.45-.15-.39-.13-.07-.02-.45-.16-.46-.16-.33-.11-.12-.05-.46-.16-.45-.17-.21-.08-.25-.1-.45-.17-.46-.18h0l-.45-.19-.46-.19-.19-.08-.26-.11-.46-.2-.33-.15-.12-.05-.46-.21-.4-.19-.06-.03-.45-.21-.43-.22h-.03l-.45-.24-.41-.21-.05-.03-.45-.24-.34-.19-.12-.06-.45-.26-.24-.13-.22-.13-.45-.27-.1-.06-.36-.22-.37-.23-.08-.06-.46-.29-.16-.11-.29-.2-.37-.25-.09-.06-.45-.33-.1-.07-.36-.26-.25-.19-.2-.16-.39-.3-.07-.06-.45-.37-.04-.02-.42-.36-.11-.1-.34-.3-.18-.15-.28-.26-.22-.2-.24-.22-.23-.23-.22-.22-.24-.24-.22-.22-.22-.23-.23-.25-.2-.21-.26-.28-.15-.18-.3-.34-.1-.11-.36-.43-.02-.03-.37-.45-.06-.09-.29-.37-.17-.22-.17-.23-.28-.38-.06-.08-.32-.45-.08-.12-.23-.34-.22-.34-.08-.11-.29-.46-.09-.14-.19-.31-.26-.43-.02-.03-.26-.45-.18-.31-.08-.15-.25-.45-.12-.24-.12-.22-.24-.45-.1-.21-.12-.25-.23-.45-.1-.23-.11-.23-.21-.46-.14-.3-.06-.15-.2-.46-.19-.45h0l-.19-.46-.18-.45-.09-.22-.09-.24-.17-.45-.17-.46-.03-.07-.13-.38-.16-.46-.16-.45v-.02l-.15-.44-.14-.45-.14-.46-.03-.07-.11-.38-.14-.46-.13-.45-.07-.26-.06-.2-.12-.45-.12-.46-.12-.46-.04-.14-.07-.31-.12-.46-.1-.45-.11-.46-.05-.22-.05-.23-.1-.46-.1-.45-.09-.46-.09-.45-.03-.11-.06-.35-.09-.45-.08-.46-.08-.45-.08-.46-.06-.36-.02-.09-.07-.46-.07-.45-.07-.46-.07-.45-.06-.46-.06-.46-.04-.26-.02-.19-.06-.46-.05-.45-.05-.46-.05-.45-.05-.46-.05-.45-.04-.46-.04-.45-.04-.46v-.02l-.04-.43-.03-.46-.03-.45-.03-.46-.03-.45-.03-.46-.02-.45-.02-.46-.02-.45v-.46l-.03-.45v-.46l-.02-.46v-1.36s0-1.37,0-1.37l.02-.45v-.46l.02-.45v-.46l.03-.45.02-.46.03-.45.02-.46.03-.45.03-.46.04-.45.03-.46.04-.38v-.07l.05-.46.04-.46.05-.45.06-.46.05-.45.06-.46.06-.45.07-.46v-.1l.07-.35.07-.46.07-.45.08-.46.09-.45.09-.46h0l.09-.45.09-.46.1-.45.1-.46.07-.29.04-.16.11-.46.12-.45.12-.46.07-.25.06-.21.13-.45.13-.46.13-.42v-.03l.16-.46.15-.45.15-.44v-.02l.17-.45.17-.46.11-.31.06-.14.18-.46.19-.45.03-.08.16-.38.2-.45.09-.22.11-.24.22-.45.13-.28.09-.18.22-.45.15-.28.09-.18.24-.45.12-.22.14-.24.26-.46.06-.1.2-.35.25-.4.03-.06.29-.45.14-.21.16-.25.29-.43.02-.02.31-.46.13-.17.2-.28.25-.34.09-.12.35-.45.02-.02.35-.44.1-.12.28-.33.18-.22.21-.24.24-.28.16-.17.3-.33.12-.13.33-.35.1-.1.36-.36.09-.1.36-.35.11-.1.35-.33.13-.13.32-.29.19-.16.27-.24.25-.22.2-.18.34-.28.12-.09.44-.36h.02l.45-.36.12-.1.34-.25.27-.2.18-.13.46-.32h0l.45-.32.22-.14.24-.16.45-.3h0l.46-.28.27-.17.18-.11.46-.27.13-.08.32-.18.46-.26h.02l.43-.25.42-.22.04-.02.45-.23.4-.2.06-.03.45-.22.43-.21h.03l.45-.22.46-.2.07-.03.38-.17.46-.19.23-.1.23-.09.45-.18.46-.18h.02l.43-.17.46-.16.36-.13.09-.03.46-.16.45-.15.36-.11.1-.04.45-.14.46-.13.45-.14h.05l.41-.12.45-.13.46-.12.38-.09.07-.02.46-.11.45-.11.46-.1.45-.1.09-.02.37-.08.46-.09.45-.08.46-.09.45-.08.23-.04.23-.03.45-.07.46-.07.45-.07.46-.06.45-.05.46-.06.41-.04h.04l-.02-.02Z"/><path class="cls-4" d="M247.15,104.66l.46-.02.46-.02h.45l.46-.02h.91l.45.02h.46l.45.04h.18l.28.02.45.03.46.04.45.04.46.05.45.05.46.06.45.06.46.06.31.05.14.02.46.08.45.08.46.09.46.09.45.09h.04l.42.1.45.1.46.11.45.11.16.04.3.08.45.12.46.13.45.13h0l.45.13.45.14.46.14.12.04.33.11.46.15.45.16.11.04.35.12.45.17.45.16h0l.45.18.46.18.24.1.22.08.45.19.43.18h.03l.45.21.46.2.1.05.35.16.46.21.18.08.27.13.46.22.21.11.24.12.46.23.21.1.24.13.46.24.17.09.28.15.46.25.09.05.36.2.45.26h0l.45.27.32.19.14.07.45.28.17.1.29.18.44.28h.02l.45.29.24.16.22.14.45.3.03.02.43.29.23.16.22.15.44.31h.02l.45.34.16.11.3.22.32.24.13.1.46.34h.01l.44.36.14.11.32.25.25.2.2.17.36.29.1.08.44.37v.02l.47.39.05.05.4.35.12.1.34.31.16.15.29.27.2.18.26.25.21.21.25.23.22.22.23.24.22.22.24.24.2.22.25.26.18.19.28.3.14.16.31.34.1.11.36.41.04.05.38.45.03.03.35.43.11.13.26.32.19.25.16.21.3.38.05.07.34.46.06.08.27.37.19.27.13.19.31.45v.03l.3.43.17.27.12.18.28.46.05.09.22.36.24.41.03.05.25.45.17.32.08.14.24.46.14.27.09.18.22.46.14.3.07.15.21.46.18.42.02.03.18.46.18.45.07.19.1.27.17.45.15.46.04.12.11.33.14.46.13.45.08.29.04.17.11.45.11.46.1.45.09.46v.02l.08.43.07.46.06.45.06.46.05.46.04.45.03.46.02.45.02.46v1.36l-.03.46-.03.45-.04.46-.05.45-.06.46-.07.45-.07.46-.08.41v.04l-.1.46-.11.45-.12.46-.12.45h0l-.14.46-.15.46-.16.45v.03l-.17.43-.18.45-.12.26-.08.2-.21.45-.16.34-.06.12-.23.45-.17.31-.08.15-.26.45-.11.19-.17.27-.29.45h0l-.31.46-.14.2-.18.25-.28.37-.06.09-.36.45-.03.04-.35.42-.11.12-.29.33-.16.18-.27.28-.19.2-.25.25-.2.2-.27.26-.19.17-.31.29-.14.12-.38.33-.08.06-.45.38-.03.02-.43.33-.16.12-.29.22-.34.24-.12.08-.45.31-.1.06-.36.24-.35.22-.1.06-.46.27-.21.12-.25.14-.45.25-.13.07-.33.17-.45.23-.12.05-.34.16-.45.21-.19.09-.27.11-.45.19-.37.15-.09.04-.45.17-.46.17-.23.08-.22.08-.46.15-.45.14-.27.08-.19.06-.45.13-.46.13-.45.11-.1.03-.36.09-.45.1-.46.1-.46.09-.35.07-.1.02-.46.08-.45.08-.46.07-.45.07-.46.06-.45.05-.24.03-.22.02-.45.05-.46.04-.45.03-.46.03-.45.03-.46.02-.45.02h-.46l-.45.02h-1.83l-.45-.03-.46-.02-.45-.02-.46-.02-.45-.03-.46-.04-.45-.04-.46-.04-.21-.02-.24-.03-.46-.05-.45-.05-.46-.06-.45-.06-.46-.07-.45-.07-.44-.07h-.02l-.45-.08-.46-.08-.45-.08-.46-.09-.46-.09-.12-.03-.33-.07-.46-.1-.45-.11-.46-.1-.29-.08-.16-.04-.46-.11-.45-.12-.46-.13-.2-.05-.25-.07-.46-.14-.45-.13-.38-.12-.08-.02-.45-.15-.46-.14-.42-.14-.03-.02-.46-.15-.45-.16-.35-.13-.11-.04-.45-.17-.46-.17-.18-.07-.28-.11-.45-.18-.4-.17-.06-.02-.45-.19-.46-.2-.09-.04-.36-.16-.46-.21-.19-.09-.26-.12-.46-.22-.23-.11-.22-.11-.46-.23-.22-.12-.23-.12-.46-.24-.18-.09-.27-.16-.46-.25-.09-.05-.36-.21-.43-.24-.03-.02-.45-.28-.27-.16-.19-.12-.45-.28-.09-.06-.37-.24-.32-.21-.14-.09-.45-.31-.08-.06-.38-.26-.26-.19-.19-.14-.43-.32h-.03l-.45-.36-.12-.09-.34-.27-.23-.19-.22-.17-.34-.28-.12-.1-.41-.36-.04-.03-.46-.4-.02-.02-.43-.4-.06-.06-.4-.37-.09-.08-.36-.36-.1-.1-.36-.36-.09-.09-.36-.39-.07-.07-.39-.42-.03-.03-.4-.46-.02-.02-.38-.43-.08-.1-.29-.36-.16-.2-.21-.25-.25-.33-.1-.13-.34-.46h-.02l-.31-.45-.14-.2-.18-.26-.28-.4-.03-.05-.3-.46-.12-.19-.16-.26-.28-.46-.02-.02-.25-.43-.2-.36-.06-.1-.24-.45-.16-.29-.08-.17-.24-.45-.13-.28-.09-.18-.21-.45-.16-.35-.05-.11-.19-.45-.19-.46-.02-.04-.17-.41-.17-.46-.12-.32-.05-.13-.16-.46-.15-.46-.09-.29-.05-.16-.14-.46-.13-.45-.12-.46-.02-.05-.1-.4-.11-.46-.1-.45-.1-.46-.04-.22-.05-.23-.08-.46-.08-.45-.07-.46-.06-.45-.06-.46-.05-.45v-.11l-.04-.35-.04-.45-.03-.46-.02-.45-.02-.46v-.45l-.02-.46v-.91l.02-.46.02-.45.03-.46.04-.45.04-.46h0l.05-.45.06-.46.06-.45.08-.46.08-.45.08-.46.05-.21.05-.24.1-.46.11-.45.12-.46.07-.25.06-.2.14-.46.14-.45.12-.35.04-.11.16-.46.17-.45.08-.2.11-.26.19-.45.16-.35.05-.11.21-.45.19-.38.04-.08.24-.45.18-.33.07-.13.26-.45.12-.2.16-.26.29-.45h0l.3-.46.15-.22.17-.23.29-.39.05-.07.36-.45.04-.06.33-.4.13-.15.26-.3.19-.22.23-.24.23-.24.21-.21.25-.25.21-.21.24-.23.25-.23.21-.18.3-.27.15-.13.4-.33.06-.04.45-.36.07-.05.39-.28.24-.18.21-.15.45-.3h0l.45-.3.26-.16.2-.12.45-.27.12-.06.34-.19.45-.24.05-.03.41-.2.45-.22.06-.03.4-.18.45-.2.18-.08.28-.11.45-.18.43-.16h.03l.46-.18.45-.15.4-.13h.06l.45-.15.46-.13.45-.12.21-.05.25-.06.45-.11.46-.1.45-.09.46-.09h.07l.38-.07.46-.08.45-.06.46-.06.45-.05.46-.05.45-.04.46-.03.33-.02h.17Z"/><path class="cls-2" d="M366.31,349.14l-2.65,1.76-.11,1.44h-.97l-.74-1.14-1.7,1.1-1.02-1.8-2.96-.28-2.55,5.06-3.74,2.89-.24,1.15-15.42-.04-.1,20.56-12.05-.02-.86,2.45-.85.26-1.07,2.04-.18,2.74.54,1.41-2.55,2.93-.91-.72-1.96.37-3.27-1.11-.86,1.4-1.86,1.19-.48,1.59.78,1.29-.21,2.96,1.02,1.27-.08,1.88,1.15,2.95-.62,3.67-4.97,1-.86,1.03-.4,2.14.45.84-2.74,1.98-.2,1.08-1.05.55-1.02-.41-2.7,1.82-1.74,3-4.99.98-.9-.58-4,2.14-.27-2.65-1.96-2.25-12.97-.74-1.4,1.62-2.01.82-1.07-.54-1.36.59-1.35,1.11-2.14,3.68-2.26.81-.43,1.19.88,1.21-4.03,5.08-2.21.15-.51-.89-2.96,3.56-4.25-1.54-1.79,2.16-.76,2.1-.12,2.38-1.75,3.11.42,1.79-.67,1.22-1.69-.23-2.86-1.62-1.76-2.9-2.42-2.25-1.96-3.91.11-1.87.72-.23-.97-4.24.26-1.06-1.08-.5-.45-4.02-2.64-3.38-.24-1.94-1.41-1.81.09-1.23-3.1-5.35-1.37-5.14-1.05-1.18-2.5.21.54-1.19.89.16.85-.83,3.72,1.93,1.4-3.16,1.3-.7.62-1.43-1.41-1.37v-.76l1.82-2.82,2.59.46.87-1.12,3.23-.86.65-2.32,1.89-.18.79-1.62-.41-1.62,2.97-1.03,2.56,2.7,1.57-.73,2.71,1.14,1.34-2.45,1.76-.72,6.18-6.2-.45-2.81,1.03-.49v-17.97h-1.71l.08-20.45,39.76-.12v-10.23l76.76.24-3.38,5.64-2.46.74-.4.87.77.63-.28,1.01,2.44,1.68.91,2.12-1.38,3.09.81,4.63"/><path class="cls-2" d="M165.57,235.89l.81,3.53.95.88-.16,1.1,2.4,1.87-.46,2.49-1.7.84,1.04,1.55.02,3.38-.33,1.24-1.8-.06-1.8,1.15-.29.8,1.16,2.42-2.64,5.67-.18,5.87-.6,1.59-2.59.51-1.36,1.02-.55,2.59,1.95,1.22-.32,1.69.82,1.14-.24,1.15,1.2,1.1.18,2.83,1.04,2.45-1.46,6.55,3.52,1.33.64,1.36,1.06-.32.89.72-.23.89,1.8,2,.38,1.6,1.14.64.79,2.88,1.27.36.81,1.6-.38,5.99,1.26,3.55.91.63-2.12,5.93.18,2.64,5.38,2.98.38,1.57-2.16,1.98-.54,2.68-1.48.23-.61,2.1.46,1.77-6.54,2.82-.85.88-.44,2.09.95,2.9,2.5-.03.44,1.17,2.26,1.54-.97,1.24.26,2.83-.56,2.93,2.55,2.52.07,1.2,1.43.89,2.36,4.12-.22,1.74-2.03,1.07-.98,4.16-2.2,2.06.23,1.08-1.12,1.55.12,1.08-1.78,2.2-.03,2.79,5.53,2.27,1.33-.53.84-3.32,1.75-1.08,2.08,2.44,3.72-.2,3.34.9-.5,2.22,3.08.99-.77,1.46,1.4,3.44-.43,1.32,1.05,3.46,2.29,3.44h3.15l.6-.92,1.55-.13,1.21,4.8,3.85.6.89.78.25,1.29,2.35-.8,1.44-1.24,4.48.51,1.44,1.18.31.95-3.15,5.37.28,8.25-4.14.43-2.32,1.06-.89-.3-1.87,2.17-.64,2.14.4.86-2.99.13-1.86,2.15-3.71.65-1.45-.43-2.07,1.2-1.27-1.27-1.68.48-1.94-1.16-1.27,1.25-1.11.03-.51,1.83-2.15,1.16-.05,1.48-2.3.95-2.34,3.09-1.58.33-1.47,1.93-2.27.02-.07,1.98.83,1.23-2.09,1.35-.73,2.35-1.77,1.79-2.28,1.04-3.14-.52-.91-4.83-2.47-1.89-.85,1.33-3.24,1.75-3.26,5.25.9.85.99,2.77-.76.83.98,1.28-1.26,1.97.71,2.16-1.03,1.2-1.5-1.15-2.53,1.93-3.95,1.41-.88-.37-.57-2.24-2.65-1.19-1.51,2.17-3.46.95.77,2.08-2.23,2.01,1.47,1.31.87,2.67-.25,1.3-.99,1.12-2.11.09-1.69,2.55-3.51,2.07-1.06,3.02-1.22.86-.17,3.46-.66,1.27-1.74,1.01-3.62.67-1.99,2.84.51,1.57-1.02,1.85-2.45-.04-.66,1.21-4.11.31-2.31,3.54-1.7.06-3.63-2.4-3.28.24-.52,1.79.7,3-1.81,3.17-.48,3.83-1.4,1.03.05,1.41-1.73,1.13-1.86-.06-2.65,2.48-5.68,2.29-1.11-2.54-1.24-.55-1.51-4.59-3.27-2.45-5.59-1.53-2.65-6.5-1.43-.45-1.01-1.24-1.41-.2.18-2.1,1.03-1.65-1.5.11-1.3-.7-1.88.42-2.02,1.47-4.5-3.61-4.25,3.23-2.07-1.3,1.02-.68,1-2.61-.89-1.85,1.74-3.58,1.54-1.52-1.07-2.54-1.38-.45-1.71-4.4,1.97-1.13,1.57.07.39-1.98,1.63-.45,1.06.74,2.43-2.03,1.27-2.48-.42-1.28.52-1.16-.29-.8-2.09-.35,2-2.33,1-2.47-1.45-4.14-1.79-1.32-1.81-.05-1.46-2.7-1.94-.97.53-3.74-1.08-1.11-1.01-.09-1.41-1.99.57-1.55,1.15-1.69,1.79-.82-.08-1.85,2.24-2.81v-2.12l2.9-2.55-.69-1.41,1.21-2.26.98-.15.52-.94,2.41-.38,1.6,1.19.81-1.16,5.23-2.61,4.49,2.48.62-4.32,1.65-.29,1.24-2.88-.12-1.92-.65-.02-.39-2.18-1.51-.54-1.45-1.85-.21-2.47-2.65-3.27,1.04-1.87,3.59-3.28.09-1.34-1.57-3.34-2.74-2.04-3.16-.25-1.5-2.32-.94-.03-1.85,1.31-1.54-1-.47-1.85,2.26-2.03-1.1-4.14-1.41.6-2.5-.41-.28-2.09,1.8-1.63.33-1.68,2.15-.66,2.08-2.44-.82-.81-.04-1.78,1.64-.39.18-4.71-1.58-1.67-.57-1.76-2.25.03-1.66-1.38-1,.11-2.1-1.16-.51-.75.58-2.13-1.56-2.31,2.04-1.92-.14-3.06,1.29.46,2.94-.71,2.3,1.58,2.75-2.18,2.01.53.31-8.25-1.36-2.88.98-1.04-.7-4.11-2.57-2.26.19-1.27-.96-3.09.95-1.84,1.8.54,1.43-.42,2.75-2.5.35-1.06-1.28-4.16,1.85-5.76,1.28-1.34.61-6.98-1.98-5.07,2.28-3.25,1.11-.16,1.26-1.8,1.39-.5v-3.82l.96-1.75,1.62-.34-.51-1.42-2.01-1.29.81-2.88-.6-1.4-1.85-.75-1.03-2.15-.33-4.75.6-.81,2.52-.67,1.3.79,1.22-.79,1.34.04,1.82-1.27.86-1.81-.92-3.71.77-1.81-.64-2.34,2.91-6.05-2.32-2.99,1.31-.89,2.14-3.97-.85-2.2.94-1.38.29-2.97-.06-1.98-1.94-3.21,81.07-.07"/><path class="cls-2" d="M292.52,328.49v10.23l-39.76.12-.08,20.45h1.71v17.97l-1.03.49.45,2.81-6.18,6.2-1.76.72-1.34,2.45-2.71-1.14-1.57.73-2.56-2.7-2.97,1.03.41,1.62-.79,1.62-1.89.18-.65,2.32-3.23.86-.87,1.12-2.59-.46-1.82,2.82v.76l1.41,1.37-.62,1.43-1.3.7-1.4,3.16-3.72-1.93-.85.83-.89-.16-.54,1.19-1.44-1.18-4.48-.51-1.44,1.24-2.35.8-.25-1.29-.89-.78-3.85-.6-1.21-4.8-1.55.13-.6.92h-3.15l-2.29-3.44-1.05-3.46.43-1.32-1.4-3.44.77-1.46-3.08-.99.5-2.22-.97-.45-6.09-.25-2.08-2.44-1.75,1.08-.84,3.32-1.33.53-5.53-2.27.03-2.79,1.78-2.2-.12-1.08,1.12-1.55-.23-1.08,2.2-2.06.98-4.16,2.03-1.07.22-1.74-2.36-4.12-1.43-.89-.07-1.2-2.55-2.52.56-2.93-.26-2.83.97-1.24-2.26-1.54-.44-1.17-2.5.03-.95-2.9.44-2.09.85-.88,6.54-2.82-.46-1.77.61-2.1,1.48-.23.54-2.68,2.16-1.98-.38-1.57-5.38-2.98-.18-2.64,2.12-5.93-.91-.63-1.26-3.55.38-5.99-.81-1.6-1.27-.36-.79-2.88-1.14-.64-.38-1.6-1.8-2,.23-.89-.89-.72-1.06.32-.64-1.36-3.52-1.33,1.46-6.55-1.04-2.45-.18-2.83-1.2-1.1.24-1.15-.82-1.14.32-1.69-1.95-1.22.55-2.59,1.36-1.02,2.59-.51.6-1.59.18-5.87,2.64-5.67-1.16-2.42.29-.8,1.8-1.15,1.8.06.33-1.24-.02-3.38-1.04-1.55,1.7-.84.46-2.49-2.4-1.87.16-1.1-.95-.88-.81-3.53h5.48v.64l20.15-.05-.03-13.6,18.72-.06v-3.4h1.03v-3.21l10.48-.02v-13.64l10.07.06.08-6.96,20.08-.02v5.94l2.53-1.37,1.86-2.85.68.03,2.89,2.57-.1,2.91,2.31,4.28,2.71.93,5.13,4.3,1,1.63-1.54,2.07.27,2.8.55.61,1.81-.65.71,1.28,1.8-.54,2.91,1.02,2.71,2.96,4.36-1.99,1.59.3.6-1.01,2.13-1.52,1.43-.16.89-1.08,1.35.26.3,110.14"/><path class="cls-2" d="M9.96,93v6.79h3.43v3.4h10.2v10.19h3.36v3.53h6.61l-.04,6.8h3.43v3.41h6.8v6.79h3.38l-.06,6.44,13.22-.03.08,10.38,10.2.02.05,3.38h-5.14l.02,3.69-3.85-1.58-1.96.05-2.44-2.22-3.64-.03v3.98l-3.51-.02.12,6.83h-3.16l-.02,30.5h2.77l-.02,20.26h-20.2v2.47l-.98-.47-1.49.46-1.1-.89-.9,2.4-.96.78-.31,2.3-.98.78-3.82.56-1.86,3.41-2.3.06-.33-1.84-2.19-.79-1-1.41,1.02-1.27-.11-1.61,2.49-2.92.32-1.56-.4-.34.41-2.67-1.39-1.05v-.67l-1.58-.75-.43-2.83-2.32,1.03-1.42-1.41-3.38-.31-1.06-2.14-3.14-2.08-1.43-3.03-3.42,1.2-.58,1.53-.77.23-.49-1.74.61-1.84-.59-1.21-1.34-.04-2.49-1.43-1.02-1.84v-1.7l.74-1.11-.74-1.5-2.3-.48-.87-.9.67-1.75,1.92-1.81.2-1.51-.92-3.54,1.22-2.98,1.14-.6-.67-1.64-1.51-.08-3.98-2.38.26-.86-2.01-1.31-1.89-2.37-2.86-4.36-.07-.96-4.37-.89-.54.97-2.57.46-.32-2.69-2.86-3.33.41-1.2-1.21-3.18.49-1-.65-1.77-.97-.61-.33-2.34-1.04-.69.15-1.07-2.99-.68-4.03-4.79-1.31-2.41-.52-3.15.38-.94-.61-1.2-2.59-.08-1.93-1.19-.12-1.2-2.19-2.98.07-1.09-2.7-2.39-1.54-.53-1.59-1.67-3.32-.38-1.89-2.83-.21-2.87-1.07-1.59-3.86-.41-.64-.78-1.35-.19-.31-1.37,1.56-4.09-1.17-3.45-1.97-.98-1.19-1.56-.95-2.21.97-1.45-.83-1.04-2.78-1.53-2.85.76-4.22-1.92-4.28.8-1.52-1.7.1-1.35-.95-.7h-1.65l-1.36.78-1.96-.32.03-.76-1.48-1.36-2.46,1.42-1.19-1.67-6.33-2.53.1-2.3-1.47-2.07-.79-2.78-1.4-1.34.3-2.73-1.32-1.62-1.41.33-1.7-1.09-.15-2.39-2.96-1.05-.98-1.35-2.46-1.19-4.12,1.22-2.31-5.37-1.05-.62-1.92.08.08-1.62-2.61-1.35-3.32-.07-1.43-1.54v-.87l-2.82-.16-.64.66-2.26.25-.37-.65,2-4,3.41-1.25,1.34-1.17,2.39.02,1.76-1.1,1.71.23.57.66,4.83-.76,1.08-.72,1.71-4.68,1.67-1.18,1.02,2.29,7.45.9,5.98-1.46,1.14-2.64-.63-1.62,1.06-.33,1.69.58,3.9,5.33,2.15.52,2.2-.44,1.42,1.17,2.96-2.26,2.89-.85,1.67-1.25,3.58.64,2.35-.27,1.66.76,1.88,2.15,2.99-.02,2.9-.1,1.47-2.17,2.08-1.4,3.94,1.56,1.64-.1,2.26,1.02.04,1.19,1.71,1.22,4.77,1.09,5.94,3.14-.27,1.04,1.54,2.46,4.54,3.04,3.31-1.79,2.04.11,3.34,2.36,2.91.41.05,1.4,3.37-1.18,1.54,1.29.63,1.94,5.11.91.49.33.35,3.98,1.28,1.04v14.43l10.12.04v3.41H2.7l.02,6.84,7.24-.02"/><path class="cls-2" d="M275.26,16.25l2.17,1.84.61,2.77,1.49,1.28-.28,2.42-.83.52.34,3-.53.79,1.21,4.99-.77,1.13,1.06,1.75.27,1.71-.57.54.65,2,3.67,2.31,1.77-1.21,2.82.78.59-1.49.02,72.62,1.55.57,40.7.03.03,81.16,41.72-.61.02,31.67h20.02l.04,10.22,14.41.02.91,2.55.94.72.32,1.38-.52.54,1.82,1.67.1,2.93.87,2.15-1.19,1.45.15,1.76-2.74,4,1.05,1.77.39,4.12,2.26,4.28-.54,1.12.32,1.59-1.24.7-.56,1.47.71,4.82-1.14,2.12.58.83.11,3.73-.56,2.04.56.67-2.66,1.54.65,4.84,1.06.37-.31.66-3.95,3.45-2.01,4.31-3.94-.4-1.83.87-2.92-.75-2.21,2.32.46,1.12-1.83.69v2.7l-1.68,1.55-2.38.21.3,3.74-.74,1.21-1.69.02-1.42-2.83-1.95.22-.8-.55h-1.21l-.93,2.84-1.46-.59-1.6.66-1.25-.9-4.09,6.17-2.26.61-.33,1.94,1.65,1.93.73,2.5-.16,2.81-76.76-.24-.3-110.14-1.35-.26-.89,1.08-1.43.16-2.13,1.52-.6,1.01-1.59-.3-4.36,1.99-2.71-2.96-2.91-1.02-1.8.54-.71-1.28-1.81.65-.82-3.41,1.54-2.07-1-1.63-5.13-4.3-2.71-.93-2.31-4.28.1-2.91-1.19-1.59-.86.11-1.52-1.12-1.86,2.85-2.52,1.37v-5.94h-1.84v-81.59l-26.25.04V15.19l22.57-.03v1.09h29.13"/><path class="cls-2" d="M196.65,15.19h26.9v98.9l26.27-.04v81.59h-18.26l-.08,6.96-10.07-.06v13.64l-10.47.02v3.21h-1.03v3.4l-18.73.06.03,13.6-20.15.05v-.63l-86.56.06-3.24-.7-.79-1.2-3.23.36-.76,1.02-1.88-.5-3.13,1.92-1.63-.91-4.61,2.65-.25,1.99-1.99,2.14-2.28-.02-2.66-1.32-.58-.91-3.63.18-2.87-2.2-.94,1.28-1.59.11-.92.76-1.01-.56-2.4,2.3-1.49.11-3.11-1.3-.52-1.17.75-.94-.54-1.87-3.33-.96-.65-1.39,1.09-1.08-1.07-.52-.28-1.71,2.88-2.69.44-3.84-3.9-3.77-.34-1.9-2.79-1.81-1.66.53v-2.48h20.19l.02-20.26h-2.77l.02-30.5h3.16l-.12-6.82,3.51.02v-3.98l3.64.03,2.44,2.22,1.96-.05,3.85,1.58-.02-3.69h5.14l-.05-3.38-10.2-.02-.08-10.38-13.22.03.06-6.44h-3.37v-6.8h-6.82v-3.41h-3.42l.04-6.79h-6.61v-3.55h-3.35v-10.19h-10.2v-3.39h-3.42v-6.79l1.55.13.7,1.06,3.52.92,1.53-.91,2.33.25,3.48,2.01,1.13-.19,3.39-4.53,4.37,1.27,1.1-.39,2.45.88,1.05-.39,2.38,1.42,10.63,3,1.23,2.3,1.75-.1,2.36,2.39,2.5.68,1.29,1.72,3.92.13,1.58.99.78,1.69,2.85-.78,2.05.28,3.29,3.11,2.5.87,1.04,1.2,3.35.21.99-.48,1.08,1.49.23,1.55,1.16.89-2.08.79-.65,2.59,1.18.33,2.46,2.67h1.62l1.57,1.92,1.71.19,2.53,2.42,2.21.81,2.87.43,3.08-3.18,3.85,1.55,1.91-2.23,2.09-.28,40.71.02v-10.21h17.99s.04-20.44.04-20.44l-.51-1.34-3.08.56-1.9-3.05-1.54-.91-.93.17-.43-2.55-1.49-2.13-2.44-.26-.49-.86,2.24-1.18v-2.41l.84-2.44-1.16-3.88.49-3.21,1.63-.57.76-4.92-2.38-3.54-.81-2.01.06-3.73-2.1-3.78-4.61-2.35-.1-2.23-2.91-2.09,1.33-.87.55-1.91-.42-.6,1.06-1.79,3.28-.54.84-3.34-2.87-1.43.93-1.84-.32-1.94-.9-.67,1.6-2.32-.74-3.78-1.22-2.25.6-4.39-.37-1.12-1.83.44-1.15-.79h50.52"/><path class="cls-2" d="M451.29,34.92l.45,75.99,1.47-.24,1.61-1.25,1.46,1.21.93-.28.38,1.03-.91.55.71,2.18,2.47-.14-.41-1.36,2.42.07.98,1.21-.54,1.4.44,1.35,1.61-1.22.7,1.07-.37,2.4.8.62.86-.27,1.88,3.22,1.31.52.51-.55,1.71,1.88h3.83l-.02,3.39,3.52-.03-.07-1.71,13.74-.06-.15,50.56,21.2.08,1.29,1.27,4.21,1.2,2.44,2.51.96.2-.94,3.04-1.8,1.54-3.61,1.65.18,1.51.91,1.05-1.65,2.5,1.11,2.66,1.81-.11,3.92,5.3,1.04.57.9-.36.97.87,1.84-1.1,3.33,1.41,3.29-.08,1.36-1.13-.04-1.79,2.39.13.41.7-.79,1.17,2.49,4.23.22,3.69-.55,2.84-1.73.69-5.75-2.26-2.74.65-.89-2.46-1.45-.09-1.71-1.08-1.57,1.09-.92-.24-1.21,1.29-.84,3.37-1.22.69-.48,2.32-2.14,1.75-.15,36.63,1.32,2.89-63.77.28-.67,1.09.64,1.49-.68,3.45-4.75,4.57-3.24,1.65-6.01.46-1.81-1.28-1.67.42-1.49,1.55-4.09,1.48-1.04,1.03-3.51.56.81,3.05-.39,1.43,2.57.69,1.17,1.35.56,3.44-1.97,1.38-1.63-.33-1.51.75-1.15-.41-.8,3.35-3.59,3.21-1.3-.22-3.1,1.99-1.36-1.03-6.21-.8-.42-1.92-.23-2.92,2.66-1.54-.56-.67.56-2.04-.11-3.73-.58-.83,1.14-2.12-.71-4.82.56-1.47,1.24-.7-.32-1.59.54-1.12-2.26-4.28-.39-4.12-1.05-1.77,2.74-4-.15-1.76,1.19-1.45-.87-2.15-.1-2.93-1.82-1.67.52-.54-.32-1.38-.94-.72-.91-2.55-14.41-.02-.04-10.23h-20.02l-.02-31.66-41.72.61-.03-81.16-40.7-.03-1.55-.57-.02-72.62-.59,1.49-2.82-.78-1.77,1.21-3.67-2.31-.65-2,.57-.54-1.33-3.46.77-1.13-1.21-4.99.53-.79-.34-3,.83-.52.28-2.42-1.49-1.28-.61-2.77-1.83-1.26-.82-2.16,1.86-4.25-1.4-1.46v-2.51l1.9-.46.73-1.74-.06-3.4-1.11-.55-1.77-3.07-.43-2.46-1.4-2.08-1.28-5.64.27-2.41,1.53-.57,2.62-3.16,2.63,1.02,4.4-.46,2.16-1.5-.57-4.39.64-.92,1.56-.31,1.51-3.32-.87-2.66,1.1-2.07-.65-1.27.27-2-1.11-1.67.46-2.12,1.32-1.03-.42-3.58.45-3.04-1.17-1.49.39-2.01-4.76-2.49-.13-2.4,1.09-1v-1.8l3.71-1.6,6.63-.47,1.34-3.38,2.47-.61,2.19-2.31,1.85,9.89,2.26.59.99,1.06.68,3.07-.42,1.31,1.16,3.54,2.65,2.6-.24,1.34,2.71,6.7-.59.85.4,2.05-.73,5.08-.77,1.11.59,2.22-1.24,3.76.54,1.74.96.32.63,1.21.12,1.7,1.74,1.93-.72,2.54.62,3.26-1.85,2.51,2.61,4.51,1.02.07-.17,1.62,2.41,2.86.25,2.27,1.06.07.26,1.26,1.27.61-.06,1.41.85,1.23,1.37.22,4.8,4.98,1.48-1,4.28,3h1.6l2.8-1.95,1.97-.46,1.41-1.94,3.14.06.74-.92,1.63-.35,1.82,1.7,2.08-1.72,1.15.99.7-1.05,2.51.46.95-1.38,1.82-.32.36-1.21,1.77-.58,2.04.77,2.59-.65,1.14.45,2.75-1.5-.06-1.13,1.47-1.8,1.16.13.48,1.07,2.23,1.09,1.42-.2-.2,2.09,1.15.7-.08,2.01,1.17.84,1.25-.41,1.06,1.72,3.26-.25,5.69,2.33.86-.35,1.8,1.46.49,3.81.76,1.39,1.11-.11-.06,1.82.72,1.18-.87,2.54.48.55,3.61.15,1.58,1.24,4.08-1.17.73.33-.15,2.48,1.6-.47.51-.8,2.11.65,1.37,3.26,2.6,1.37.39,1.22,1.23.96.02,1.34.73.42,4.46-1.05,1.94.99,1.22-.73,1.96.05.72,1.15,1.4.35.86-1.03,2.06-.49,1.36-1.22,1.41,1.06,1.52.03,2.17-1.72,2.68,1.22,1.28-.06.18.88,3.28-.99.78.27,2.28-1.22,1.25,1.03,1.64-1.18,1.16.53,1.36-.33"/><path class="cls-2" d="M196.65,15.19h-50.52l1.15.8,1.83-.44.37,1.12-.6,4.39,1.22,2.25.74,3.78-1.6,2.32.9.67.32,1.94-.93,1.84,2.87,1.43-.84,3.34-3.28.54-1.06,1.79.42.6-.55,1.91-1.33.87,2.91,2.09.1,2.23,4.61,2.35,2.1,3.78-.06,3.73.81,2.01,2.38,3.54-.76,4.92-1.63.57-.49,3.21,1.16,3.88-.83,2.44v2.41l-2.25,1.18.49.86,2.44.26,1.49,2.13.43,2.55.93-.17,1.54.91,1.9,3.05,3.08-.56.51,1.34-.04,20.45h-18v10.2l-40.71-.02v-10.24h-2.56v-40.84l-13.72-.03-2.73-1.62-3.09,1.51-.56-.98.67-1.48-4.64-5.34,1.65-4.65.11-7.02,2.03-1.85.51-4.63.87-.55,3.81,1.82,2.31-2.39-.35-1.7-2.06-3.99-1.44-.35-7.31.23-1.81,1.31-1.09,2.23-1.36.2-.72-.76.27-1.59,1.58-2.51,1.21-4.76-.54-2.92.77-1.7,4.64-2.64.99-2.28-.09-.86-1.52-.61-.53-3.5,2.53-1.39.76-1.32-1.08-.88-1.47.58-.56,1.37-.86-.28-.84-2.57-37.44.09-.11-34.01h-3.24v-10.19s20.44-.03,20.44-.03l-.03-20.08h-2.35v-20.35l72.8-.14-.67-2.22.58-3.61-.76-2.05-1.42-1.08-1.34,2.29-2.76-7.56,4.5.03.05-3.37h3.46l-.11-3.36,23.19-.06-.26.99,1.45,1.42,1.71.05-.54,1.64,1.71,2.1-.02,1.48-.8.18-.21,1.11,3.74,8.19,1.44.57.57-1.09.89.53,1.75-1.05,1.55.73,1.54,2.71.78-.03,1.82,2.33.89.22-.3,1.76.62.66,1.28-.97,2.44-.28,3.03,4.41.15,2.4,1.42,1.71h3.1l.71,1.88,3.6,2.87.75,1.38.06,4.84-1.35,2.29,1.49,4.56-1.13,3.36.96,1.8-.34,1.55-1.24.13-.7,1.56.11,2.48,1,.4.67,2.29,2.88,2.19.96,2.11-.06,1.19-2.72,3.24.72,2.51,1.36.82,1.79,2.73,2.12-.03,1.55-.78,2.1.52.18,4.56.68,1.19.08,3.25-1.26,4.69-1.85.3-.83.76-.55,2.59.38,2.7-.86,2.17.64,1.15-1.45,5.17"/><path class="cls-2" d="M553.88-75.79l-.06,67.93-41.44.09.05,20.34-41.12-.02.04,24.91-.99,1.15-1.48-1.22-2.58-.39-1.16.87-1.49-1.83-.88.92h-2.04l-.91-.9-.71.89-4.41-2.44-4.77.74-1.16-.53-1.64,1.18-1.25-1.03-2.28,1.22-.78-.27-3.28.99-.18-.88-1.28.06-2.68-1.22-2.17,1.72-1.52-.03-1.41-1.06-1.36,1.22-2.06.49-.86,1.03-1.4-.35-.72-1.15-1.96-.05-1.22.73-1.94-.99-4.46,1.05-.73-.42-.02-1.34-1.23-.96-.39-1.22-2.6-1.37-1.37-3.26-2.11-.65-.51.8-1.6.47.15-2.48-.73-.33-4.08,1.17-1.58-1.24-3.61-.15-.48-.55.87-2.54-.72-1.18.06-1.82-1.11.11-.76-1.39-.49-3.81-1.8-1.46-.86.35-5.69-2.33-3.26.25-1.06-1.72-1.25.41-1.17-.84.08-2.01-1.15-.7.2-2.09-1.42.2-2.23-1.09-.48-1.07-1.16-.13-1.47,1.8.06,1.13-2.75,1.5-1.14-.45-2.59.65-2.04-.77-1.77.58-.36,1.21-1.82.32-.95,1.38-2.51-.46-.7,1.05-1.15-.99-2.08,1.72-1.82-1.7-1.63.35-.74.92-3.14-.06-1.41,1.94-1.97.46-2.8,1.95h-1.6l-4.28-3-1.48,1-4.8-4.98-1.37-.22-.85-1.23.06-1.41-1.27-.61-.26-1.26-1.06-.07-.25-2.27-2.41-2.86.17-1.62-1.02-.07-2.61-4.51,1.85-2.51-.62-3.26.72-2.54-1.74-1.93-.12-1.7-.63-1.21-.96-.32-.54-1.74,1.24-3.76-.59-2.22.77-1.11.73-5.08-.4-2.05.59-.85-2.71-6.7.24-1.34-2.65-2.6-1.16-3.54.42-1.31-.68-3.07-.99-1.06-2.26-.59-1.85-9.89,2.21-.15,2.14.77,1,1.57,1.39-.56.72.57,4.19-.48,2.29-6.08.9-.92,2.21.14-2.91-10.16-1.8-2.55-1.29.31-3.18-1.55-1.82.98-.48-.6-.11-3.87,2.18-1.3-.1-1.27-3.53-2.07-.64-1.22-2.89.27.57-1.51-.68-2.4-1.9-1.9-.29-1.78.86-.41-.41-1.65,1.59-.69-2.77-3.04-1.5.58-.78-.65,30.19-.51,104.17.53v10.2l20.83.15-.02,10.25h10.35l-.11,13.69,92.42-.51"/><path class="cls-2" d="M-104.4-57.57l2.05-.29,1.85-1.22,2.47.7,1.4-1.76,5.42,2.26.94-5.31,3.51-.6-.36,3.45.46,2.2,2.48,1.64,2.11-.3,1.78-1.32,1.21.29,1.17-1.15,3.2-.75.37-.62,3.45,2.26,1.08,3.03,1.32,1.65,1.21.4,2.43-3.05,1.6-.28,1.13-2.52,3.39,1.61,3.07-2.6,1.42.79.43-1.02.35.64,1.15-.33,1.07-6.88-1.13-2.04,1.78-1.13-.26-2.94,1.74.31.83,2.33.92.38,1.03-.6.35-2.7,1.51-2.04-2.36-2.72.29-3.31-.85-1.85,23.09.02v3.4h3.41v30.63H-.3v-.7l41.18.04v30.36h3.23s.11,34,.11,34l37.44-.09.84,2.57.86.28.56-1.37,1.47-.58,1.08.88-.76,1.32-2.53,1.39.53,3.5,1.52.61.09.86-.99,2.28-4.64,2.64-.77,1.7.54,2.92-1.21,4.76-1.58,2.51-.27,1.59.72.76,1.36-.2,1.09-2.23,1.81-1.31,7.31-.23,1.44.35,2.06,3.99.35,1.7-2.31,2.39-3.81-1.82-.87.55-.51,4.63-2.03,1.85-.11,7.02-1.65,4.65,4.64,5.34-.67,1.48.56.98,3.09-1.51,2.73,1.62,13.73.03v40.84h2.56v10.24l-2.1.28-1.91,2.23-3.85-1.55-3.08,3.18-5.08-1.24-2.53-2.42-1.71-.19-1.57-1.92h-1.62l-2.46-2.67-1.18-.33.65-2.59,2.08-.79-1.16-.89-.23-1.55-1.08-1.49-.99.48-3.35-.21-1.04-1.2-2.5-.87-3.29-3.11-2.05-.28-2.85.78-.78-1.69-1.58-.99-3.92-.13-1.29-1.72-2.5-.68-2.36-2.39-1.75.1-1.23-2.3-10.63-3-2.38-1.42-1.05.39-2.45-.88-1.1.39-4.37-1.27-3.39,4.53-1.13.19-3.48-2.01-2.33-.25-1.53.91-3.52-.92-.7-1.06-8.8-.11-.02-6.84H-7.51v-3.41l-10.1-.04v-14.43l-1.29-1.04-.35-3.98-5.6-1.24-.63-1.94-1.54-1.29-3.37,1.18-.05-1.4-2.91-.41-3.34-2.36-2.04-.11-3.31,1.79-4.54-3.04-1.54-2.46.27-1.04-5.94-3.14-4.77-1.09-1.71-1.22-.04-1.19-2.26-1.02-1.64.1-3.94-1.56-2.08,1.4-1.47,2.17-5.89.12-1.88-2.15-1.66-.76-2.35.27-3.58-.64-1.67,1.25-2.89.85-2.96,2.26-1.42-1.17-2.2.44-2.15-.52-3.9-5.33-1.69-.58-1.06.33.63,1.62-1.14,2.64-5.98,1.46-7.45-.9-1.02-2.29-1.67,1.18-.82-.47-2.03.85-2.21.03-1.08-2.57-2.97.91-.64-3.76-1.26-.28-2.14-3.44.02-1.49,2.55-1.08-.47-.86-1.32-.86-.85.59-2.92-.73-1.02-.98-.7.35-1.69-.79-.7-1.56,2.36-3.56,3.01-2.03.11-.96,2.38-.32.62-2.1,1.8-1.64-1.14-4.36,1.09-1.23-.4-1.54-2.13-2.57-3.64-1.79-.97-3.02.82-1.6-.14-1.46.94-1.29-.32-1.88.9-3.09-1.39-2.37-3.49-2.84-1.11-.5-2.15.37-1.74-3.36.54-2.36-2.67-3.62-.95-.23-3.57,1.34-.84-.57-.73-1.53.07-2.02-2-3.9-.21-5.49.59-1.08-1.15-3.1-2.96-1.67-1.74-3.44-3.13,1.55-1.5-2.37-1.31-.09-1.07-3.14-1.64-1.72-.41-1.63-2.58-3.15-2.29-1.12.47-2.72-.68-.83-2.15-.45-2.41-5.2-1.38-1.16-.13-1.75-3.68-5.13-1.35.29-1.65-1.28.02-56.29,5.17,2.39-.31.79.77,1.87-1.04.56-.17,2.24.79.61-.24,2.55,1.36,1.18.05,1.14,1.58.72.87-.41,3.9.81,2.08,1.37,2.84-7.79,4.95-.13,1.16-2.63,2-.7.87-1.32,1.69-.57.93.44,1.41-.63.32-1.16,3.92-.14.35-1.43,4.69-1.27,2.83-3.97.63-3.02,1.15-1.53,1.97-1.16,2.56.43,5.52,3.47.41,1.2,1.2.89.93,3.38,3.31,4.17-.28,2.8-1.53.2-2,3.79.41,2.66,2.34.12,1.48,2.55,2.43,2.01-.45,1.19,1.87,1.66-.61,2.33,1.54,2.38.25,4.39.99,1.59-.52,1.64-.76.26.51,1.39,4.49,3.46-.28,2.88,2.31,3.96.74-.02,1.14,2.1,1.66.8.98-.38.54,1.13,1.81,1.25,1.41,2.5.82,4.58-2.96,8.84.35,1.74,1.69,1.57-.17,1.44,2.94,1.86.56,1.31,2.41-.25"/><path class="cls-2" d="M242.4-151.71l.17,1.68,2.29,1.16.63,1.64,1.16.81,3.98.82,1.5,3.41-.18,1.03,2.35,1.41,1.11-.19,1.57,1.18,1.36-.02,1.07,1.56,1.01.32.41,2.03,1.05.67.3,2.54-1.77,1.75-.12,1.62,1.11,6.72-.79,1.08.76,1.64.64-.33,3.06,1.75.83-1.1,2.84-.57.45-.84,5.2,5.58,1.26-.48,1.78,1.85v1.25l2.31.68,3.14-.45.97.64,4.32-3.18,1.77,2.14-.51,1.73.63,2.82,1.96-.92.09-.98,1.48-.86,3.24,1.18,1.5-.58,2.4,2.29.37.75-1.59.69.41,1.65-.86.41.29,1.78,1.9,1.9.68,2.4-.57,1.51,2.89-.27.64,1.22,3.53,2.07.1,1.27-2.18,1.3.11,3.87.48.6,1.82-.98,3.18,1.55,1.29-.31,1.8,2.55,2.91,10.16-2.21-.14-.9.92-2.29,6.08-4.19.48-.72-.57-1.39.56-1-1.57-2.14-.77-2.21.15-2.19,2.31-2.47.61-1.34,3.38-6.63.47-3.71,1.6v1.8l-1.09,1,.13,2.4,4.76,2.49-.39,2.01,1.17,1.49-.45,3.04.42,3.58-1.32,1.03-.46,2.12,1.11,1.67-.27,2,.65,1.27-1.1,2.07.87,2.66-1.51,3.32-1.56.31-.64.92.57,4.39-2.16,1.5-4.4.46-2.63-1.02-2.62,3.16-1.53.57-.27,2.41,1.28,5.64,3.6,7.61,1.11.55.06,3.4-.73,1.74-1.9.46v2.51l1.4,1.46-1.69,3.01.31,2.82h-29.13v-1.09l-49.48.03,1.45-5.17-.64-1.15.86-2.17-.38-2.7.55-2.59.83-.76,1.85-.3,1.26-4.69-.08-3.25-.68-1.19-.18-4.56-2.1-.52-1.55.78-2.12.03-1.79-2.73-1.36-.82-.72-2.51,2.72-3.24.06-1.19-.96-2.11-2.88-2.19-.67-2.29-1-.4-.11-2.48.7-1.56,1.24-.13.34-1.55-.96-1.8,1.13-3.36-1.49-4.56,1.35-2.29-.06-4.84-.75-1.38-3.6-2.87-.71-1.87h-3.1l-1.42-1.72-.15-2.4-3.03-4.41-2.44.28-1.28.97-.62-.66.3-1.76-.89-.22-1.82-2.33-.78.03-1.54-2.71-1.55-.73-1.75,1.05-.89-.53-.57,1.09-1.44-.57-3.74-8.19.21-1.11.8-.18.02-1.48-1.71-2.1.54-1.64-1.71-.05-1.45-1.42.26-.99-23.19.06.11,3.36h-3.46l-.05,3.37-4.5-.03,2.76,7.56,1.34-2.29,1.42,1.08.76,2.05-.58,3.61.67,2.22-72.81.14v20.35h2.36l.03,20.08-20.43.03v-20.16l-41.18-.04v.7h-20.58v-30.63h-3.42l.09-31.95h-1.54l-.06-20.41,27.6-.04-.27-81.63h-6.24v-20.04s40.07-.03,40.07-.03l-.46-1.26-2.25-1.49-3.31-1.41-1.79.08-.76-.91.99-2.9.86-.51-.28-1.43-.9-.38-.55-1.48,1.38-1.63.69-2.11,1.24-.78,5.05-.91,3.27-2.55.03-1.43,1.12-.75-.98-1.81-2.75.13-2.06-4.77-2.2-.41-1.85-1.96.29-2.04-1.51.12-3.5-1.18-1.89.23-2.89-1.91,1.49-5.11,2.39-.21.5-1.45,2.18-.84-.3-1.86.68-1.18-.02-2.07-.68-2.43-2.59-3.31.95-5.16-.93-4.68-1.35-.52-.11-1.48,2.11-3.01,1.28-.47,1.07-2.65.67-.26.32-1.74-1.93-1.57-4.45.03-1.64-.6-.74-1.99,1.98-2.27,105.76.39.46,1.56,1.42,1.44-.31,1.45,1.29,3.89,3.59-.32,1.09.79-3.42,3.63.09,1.24-.9.86.31.78,1.51.52,1.83-.46,1.44,1.85.36,3.63-.85,1.66-3.24,1.87h-2.54l-.51,1.43,4.33,2.12,2.22,3.57,1.7-.05,2.19,2.55.36,3.45-1.31.34-.83,1.12,3.73,1.75,1.18,1.65.44-1.06,1.04.04,1.19,1.32,6.13-4.13,1.15-3.35,5.86,2.82,1.53-2.34,3.91-2.04.35.98,3.3.84.05,1.29,1.49,1,2.94-1.65.69,2.76,1.62,1.8,3.07,1.82-1.12,3.44-1.42.67.39,3.37.62.33.78,2.77,3.04,1.9.55,2.92,1.89,1.78,2.02.62,1.25,2.77-.41,1.57,1.08,1-1.13,3.69-1.58,2.18-3.39.52,1.53,4.12.89.87-2.12,1.95-1.04,2.44-.18,3.12.72.93-.72.97-.07,1.68-1.07,1.21.53,1.12,2.56,1.27,1.61,2.08.75-.12,1.91,1.38,4.52.31,2.6,1.82,3.48-3.51,1.55.42,2.33,2.4.58,1.91,2.42,1.24,2.24-2.02,1.17-.06.77,1.19,4.16-1.36,4.84,2.78.79,2.61,3.16,2.23,3.04-.04.96,1.16-1.01,10.05,1.22,1.56-.92,2.49.84,3.06-2.29,3.5.27,1.54,2.73,1.88,1.66-.17,2.06,2.59,2.29.98,1.8,2.29,3.85,1.06,5.38-1.77,1.22,2.62-.44,1.6.73,2.79,2.19,1.51-.17,1.34-.83,2.49-1.98,2.23-3.02,1.9-2.69,2.89,2,2.14.06,1.98,3.38,2.1.66,1.12"/></g><path class="cls-3" d="M413.38,144.03c0-1.24-.18-2.36-.55-3.36-.37-1-1.04-1.94-2.02-2.82s-2.4-1.76-4.24-2.65c-1.84-.89-4.26-1.83-7.25-2.82-3.5-1.17-6.87-2.49-10.12-3.96-3.25-1.48-6.14-3.21-8.7-5.2-2.55-1.99-4.58-4.32-6.07-7-1.5-2.68-2.24-5.81-2.24-9.38s.77-6.52,2.3-9.27c1.53-2.75,3.67-5.1,6.43-7.05,2.75-1.95,5.99-3.45,9.71-4.48s7.78-1.56,12.2-1.56c5.83,0,10.98,1.01,15.45,3.04,4.47,2.02,7.97,4.89,10.5,8.59,2.53,3.7,3.8,8.07,3.8,13.1h-19.09c0-2-.41-3.77-1.23-5.3s-2.05-2.73-3.69-3.61-3.7-1.31-6.18-1.31-4.43.36-6.07,1.09c-1.64.73-2.88,1.7-3.72,2.93-.84,1.22-1.26,2.56-1.26,4.02,0,1.2.34,2.29,1.01,3.25.67.97,1.64,1.87,2.9,2.71,1.26.84,2.79,1.64,4.59,2.41s3.84,1.51,6.1,2.24c4.23,1.35,7.99,2.85,11.29,4.51,3.3,1.66,6.09,3.54,8.37,5.63,2.28,2.1,4.01,4.48,5.2,7.14,1.18,2.66,1.78,5.67,1.78,9.02,0,3.57-.69,6.75-2.08,9.52-1.39,2.77-3.37,5.11-5.96,7.03-2.59,1.91-5.69,3.36-9.3,4.35s-7.64,1.48-12.09,1.48c-4.08,0-8.1-.52-12.06-1.56-3.96-1.04-7.54-2.64-10.75-4.81-3.21-2.17-5.77-4.96-7.68-8.37-1.91-3.41-2.87-7.46-2.87-12.17h19.25c0,2.33.31,4.3.93,5.91.62,1.6,1.53,2.89,2.73,3.86,1.2.97,2.68,1.66,4.43,2.08,1.75.42,3.75.63,6.02.63,2.44,0,4.41-.36,5.91-1.07,1.49-.71,2.59-1.66,3.28-2.84.69-1.18,1.04-2.49,1.04-3.91Z"/><path class="cls-3" d="M477.91,138.78l4.81-.11c0,3.97-.47,7.65-1.42,11.02-.95,3.37-2.34,6.3-4.18,8.78-1.84,2.48-4.1,4.4-6.78,5.77s-5.77,2.05-9.27,2.05c-2.92,0-5.59-.41-8.01-1.23-2.42-.82-4.51-2.11-6.26-3.88-1.75-1.77-3.11-4.05-4.07-6.84-.97-2.79-1.45-6.13-1.45-10.04v-38.28h18.43v38.39c0,1.31.16,2.44.49,3.39.33.95.8,1.74,1.42,2.38.62.64,1.39,1.11,2.32,1.42.93.31,2,.46,3.2.46,2.77,0,4.94-.58,6.51-1.75,1.57-1.17,2.67-2.75,3.31-4.76.64-2,.96-4.27.96-6.78ZM476.16,150.81v-44.79h18.48v59.17h-17.28l-1.2-14.38Z"/><path class="cls-3" d="M535.82,148.57c0-1.02-.34-1.9-1.01-2.65-.67-.75-1.85-1.44-3.53-2.08-1.68-.64-4.03-1.29-7.05-1.94-2.88-.62-5.59-1.44-8.12-2.46-2.53-1.02-4.75-2.26-6.64-3.72-1.9-1.46-3.38-3.19-4.46-5.2-1.08-2-1.61-4.3-1.61-6.89s.54-4.89,1.61-7.14c1.08-2.24,2.66-4.23,4.76-5.96,2.1-1.73,4.66-3.1,7.68-4.1,3.03-1,6.47-1.5,10.34-1.5,5.32,0,9.92.81,13.78,2.43,3.86,1.62,6.84,3.88,8.94,6.78,2.1,2.9,3.14,6.24,3.14,10.04h-18.43c0-1.49-.25-2.77-.74-3.83-.49-1.06-1.29-1.87-2.38-2.43-1.09-.56-2.55-.85-4.38-.85-1.28,0-2.43.24-3.47.71-1.04.47-1.87,1.13-2.49,1.97-.62.84-.93,1.82-.93,2.95,0,.8.19,1.52.57,2.16.38.64.97,1.22,1.78,1.75.8.53,1.82,1,3.06,1.42,1.24.42,2.73.79,4.48,1.12,3.97.73,7.69,1.77,11.16,3.12,3.46,1.35,6.28,3.26,8.45,5.74,2.17,2.48,3.25,5.82,3.25,10.01,0,2.62-.6,5.04-1.8,7.25-1.2,2.21-2.94,4.14-5.2,5.8-2.26,1.66-4.98,2.94-8.15,3.86s-6.75,1.37-10.72,1.37c-5.65,0-10.43-1.01-14.33-3.04-3.9-2.02-6.85-4.58-8.83-7.66-1.99-3.08-2.98-6.21-2.98-9.38h17.17c.07,1.82.52,3.32,1.34,4.48.82,1.17,1.92,2.02,3.31,2.57,1.38.55,2.99.82,4.81.82,1.68,0,3.07-.24,4.18-.71,1.11-.47,1.96-1.12,2.54-1.94.58-.82.88-1.78.88-2.87Z"/><path class="cls-3" d="M593.41,106.02v12.8h-35.66v-12.8h35.66ZM565.25,91.31h18.43v54.58c0,1.57.18,2.78.55,3.64.36.86.99,1.46,1.89,1.8.89.35,2.09.52,3.58.52,1.06,0,1.93-.03,2.62-.08.69-.05,1.35-.14,1.97-.25v13.18c-1.57.51-3.21.9-4.92,1.18-1.71.27-3.54.41-5.47.41-3.94,0-7.3-.62-10.09-1.86s-4.91-3.19-6.37-5.85c-1.46-2.66-2.19-6.12-2.19-10.39v-56.88Z"/><path class="cls-3" d="M633.71,129.04l.11,9.84h-8.15c-1.71,0-3.16.24-4.35.71-1.19.47-2.13,1.12-2.84,1.94s-1.22,1.74-1.53,2.76c-.31,1.02-.46,2.1-.46,3.23s.26,2.07.79,2.93c.53.86,1.25,1.52,2.16,2,.91.47,1.93.71,3.06.71,2.04,0,3.78-.39,5.22-1.18,1.44-.78,2.54-1.74,3.31-2.87.77-1.13,1.15-2.19,1.15-3.17l4.05,7.55c-.73,1.46-1.56,2.94-2.49,4.43-.93,1.5-2.08,2.87-3.45,4.13s-3.04,2.28-5,3.06-4.36,1.18-7.16,1.18c-3.65,0-6.99-.75-10.04-2.24-3.04-1.49-5.48-3.58-7.3-6.26-1.82-2.68-2.73-5.77-2.73-9.27,0-3.06.56-5.8,1.67-8.2,1.11-2.41,2.8-4.45,5.06-6.12,2.26-1.68,5.14-2.95,8.64-3.83s7.62-1.31,12.36-1.31h7.93ZM631.47,150.32v-24.39c0-1.68-.24-3.12-.71-4.32-.47-1.2-1.22-2.14-2.24-2.82-1.02-.67-2.39-1.01-4.1-1.01-1.39,0-2.57.24-3.55.71-.98.47-1.73,1.19-2.24,2.13-.51.95-.77,2.15-.77,3.61h-18.43c0-2.73.61-5.28,1.83-7.63,1.22-2.35,2.97-4.4,5.25-6.15,2.28-1.75,5.01-3.11,8.2-4.07,3.19-.97,6.75-1.45,10.69-1.45,4.7,0,8.9.78,12.61,2.35,3.7,1.57,6.63,3.91,8.78,7.03,2.15,3.12,3.23,7.03,3.23,11.73v24.23c0,3.86.22,6.79.66,8.78.44,1.99,1.06,3.73,1.86,5.22v.93h-18.48c-.88-1.82-1.52-4.06-1.94-6.7-.42-2.64-.63-5.37-.63-8.18Z"/><path class="cls-3" d="M660.13,90.76c0-2.62.95-4.78,2.84-6.45,1.9-1.68,4.36-2.52,7.38-2.52s5.49.84,7.38,2.52c1.9,1.68,2.84,3.83,2.84,6.45s-.95,4.78-2.84,6.45c-1.9,1.68-4.36,2.52-7.38,2.52s-5.49-.84-7.38-2.52c-1.9-1.68-2.84-3.83-2.84-6.45ZM679.71,106.02v59.17h-18.48v-59.17h18.48Z"/><path class="cls-3" d="M709.13,118.65v46.54h-18.43v-59.17h17.28l1.15,12.63ZM706.94,133.58l-4.32.11c0-4.52.55-8.56,1.64-12.11s2.64-6.57,4.65-9.05c2-2.48,4.4-4.37,7.19-5.66,2.79-1.29,5.9-1.94,9.32-1.94,2.73,0,5.24.4,7.52,1.2,2.28.8,4.25,2.1,5.91,3.88,1.66,1.79,2.93,4.15,3.83,7.08.89,2.94,1.34,6.55,1.34,10.86v37.24h-18.54v-37.3c0-2.37-.33-4.18-.98-5.44s-1.6-2.12-2.84-2.6c-1.24-.47-2.75-.71-4.54-.71-1.9,0-3.5.36-4.81,1.09-1.31.73-2.36,1.74-3.14,3.04-.78,1.29-1.35,2.82-1.7,4.57-.35,1.75-.52,3.66-.52,5.74Z"/><path class="cls-3" d="M787.22,129.04l.11,9.84h-8.15c-1.71,0-3.16.24-4.35.71-1.19.47-2.13,1.12-2.84,1.94s-1.22,1.74-1.53,2.76c-.31,1.02-.46,2.1-.46,3.23s.26,2.07.79,2.93c.53.86,1.25,1.52,2.16,2,.91.47,1.93.71,3.06.71,2.04,0,3.78-.39,5.22-1.18,1.44-.78,2.54-1.74,3.31-2.87.77-1.13,1.15-2.19,1.15-3.17l4.05,7.55c-.73,1.46-1.56,2.94-2.49,4.43-.93,1.5-2.08,2.87-3.45,4.13s-3.04,2.28-5,3.06-4.36,1.18-7.16,1.18c-3.65,0-6.99-.75-10.04-2.24-3.04-1.49-5.48-3.58-7.3-6.26-1.82-2.68-2.73-5.77-2.73-9.27,0-3.06.56-5.8,1.67-8.2,1.11-2.41,2.8-4.45,5.06-6.12,2.26-1.68,5.14-2.95,8.64-3.83s7.62-1.31,12.36-1.31h7.93ZM784.98,150.32v-24.39c0-1.68-.24-3.12-.71-4.32-.47-1.2-1.22-2.14-2.24-2.82-1.02-.67-2.39-1.01-4.1-1.01-1.39,0-2.57.24-3.55.71-.98.47-1.73,1.19-2.24,2.13-.51.95-.77,2.15-.77,3.61h-18.43c0-2.73.61-5.28,1.83-7.63,1.22-2.35,2.97-4.4,5.25-6.15,2.28-1.75,5.01-3.11,8.2-4.07,3.19-.97,6.75-1.45,10.69-1.45,4.7,0,8.9.78,12.61,2.35,3.7,1.57,6.63,3.91,8.78,7.03,2.15,3.12,3.23,7.03,3.23,11.73v24.23c0,3.86.22,6.79.66,8.78.44,1.99,1.06,3.73,1.86,5.22v.93h-18.48c-.88-1.82-1.52-4.06-1.94-6.7-.42-2.64-.63-5.37-.63-8.18Z"/><path class="cls-3" d="M813.91,81.19h18.43v69.45l-1.91,14.55h-16.52v-84ZM868.65,134.95v1.15c0,4.48-.46,8.57-1.37,12.25-.91,3.68-2.32,6.86-4.21,9.54-1.9,2.68-4.28,4.75-7.16,6.21-2.88,1.46-6.29,2.19-10.23,2.19-3.57,0-6.64-.77-9.19-2.32-2.55-1.55-4.69-3.7-6.4-6.45-1.71-2.75-3.1-5.94-4.16-9.57-1.06-3.63-1.9-7.52-2.52-11.68v-1.37c.62-4.12,1.46-7.99,2.52-11.62,1.06-3.63,2.44-6.82,4.16-9.57,1.71-2.75,3.84-4.9,6.37-6.45,2.53-1.55,5.57-2.32,9.11-2.32,3.97,0,7.41.75,10.31,2.24,2.9,1.5,5.29,3.59,7.19,6.29,1.9,2.7,3.3,5.87,4.21,9.52.91,3.65,1.37,7.64,1.37,11.98ZM850.22,136.1v-1.15c0-2.15-.13-4.17-.38-6.07-.26-1.9-.71-3.57-1.37-5.03-.66-1.46-1.59-2.61-2.79-3.45-1.2-.84-2.77-1.26-4.7-1.26s-3.62.33-4.95.98c-1.33.66-2.39,1.6-3.17,2.82-.78,1.22-1.34,2.72-1.67,4.48-.33,1.77-.47,3.76-.44,5.99v4.32c-.07,3.03.2,5.61.82,7.77.62,2.15,1.7,3.79,3.23,4.92,1.53,1.13,3.63,1.7,6.29,1.7,1.97,0,3.56-.38,4.79-1.15,1.22-.77,2.14-1.86,2.76-3.28.62-1.42,1.04-3.12,1.26-5.09s.33-4.14.33-6.51Z"/><path class="cls-3" d="M896.27,81.19v84h-18.48v-84h18.48Z"/><path class="cls-3" d="M936.25,166.29c-4.81,0-9.12-.76-12.91-2.27-3.79-1.51-6.99-3.6-9.6-6.26-2.61-2.66-4.59-5.72-5.96-9.19-1.37-3.46-2.05-7.13-2.05-10.99v-2.08c0-4.34.6-8.36,1.8-12.06,1.2-3.7,2.99-6.94,5.36-9.71,2.37-2.77,5.34-4.93,8.91-6.48,3.57-1.55,7.73-2.32,12.47-2.32,4.19,0,7.95.67,11.27,2.02,3.32,1.35,6.13,3.28,8.45,5.8,2.31,2.52,4.08,5.56,5.3,9.13,1.22,3.57,1.83,7.58,1.83,12.03v7.49h-48.34v-11.54h30.35v-1.42c.04-1.97-.3-3.65-1.01-5.03-.71-1.39-1.74-2.44-3.09-3.17-1.35-.73-2.99-1.09-4.92-1.09s-3.66.44-4.95,1.31c-1.29.88-2.3,2.07-3.01,3.58-.71,1.51-1.21,3.25-1.5,5.22-.29,1.97-.44,4.05-.44,6.23v2.08c0,2.19.3,4.17.9,5.96.6,1.79,1.48,3.31,2.62,4.57s2.53,2.23,4.16,2.93c1.62.69,3.47,1.04,5.55,1.04,2.52,0,4.99-.47,7.44-1.42,2.44-.95,4.54-2.52,6.29-4.7l8.37,9.95c-1.2,1.71-2.91,3.37-5.11,4.98-2.21,1.6-4.84,2.91-7.9,3.91s-6.49,1.5-10.28,1.5Z"/><path class="cls-10" d="M1016.58,85.57v79.62h-19.2v-79.62h19.2ZM1050.65,85.57v14.82h-39.54v-14.82h39.54ZM1047.53,118.71v14.77h-36.42v-14.77h36.42Z"/><path class="cls-10" d="M1099.65,144.03c0-1.24-.18-2.36-.55-3.36-.37-1-1.04-1.94-2.02-2.82s-2.4-1.76-4.24-2.65c-1.84-.89-4.26-1.83-7.25-2.82-3.5-1.17-6.87-2.49-10.12-3.96-3.25-1.48-6.14-3.21-8.7-5.2-2.55-1.99-4.58-4.32-6.07-7-1.5-2.68-2.24-5.81-2.24-9.38s.77-6.52,2.3-9.27c1.53-2.75,3.67-5.1,6.43-7.05,2.75-1.95,5.99-3.45,9.71-4.48s7.78-1.56,12.2-1.56c5.83,0,10.98,1.01,15.45,3.04,4.47,2.02,7.97,4.89,10.5,8.59,2.53,3.7,3.8,8.07,3.8,13.1h-19.09c0-2-.41-3.77-1.23-5.3s-2.05-2.73-3.69-3.61-3.7-1.31-6.18-1.31-4.43.36-6.07,1.09c-1.64.73-2.88,1.7-3.72,2.93-.84,1.22-1.26,2.56-1.26,4.02,0,1.2.34,2.29,1.01,3.25.67.97,1.64,1.87,2.9,2.71,1.26.84,2.79,1.64,4.59,2.41s3.84,1.51,6.1,2.24c4.23,1.35,7.99,2.85,11.29,4.51,3.3,1.66,6.09,3.54,8.37,5.63,2.28,2.1,4.01,4.48,5.2,7.14,1.18,2.66,1.78,5.67,1.78,9.02,0,3.57-.69,6.75-2.08,9.52-1.39,2.77-3.37,5.11-5.96,7.03-2.59,1.91-5.69,3.36-9.3,4.35s-7.64,1.48-12.09,1.48c-4.08,0-8.1-.52-12.06-1.56-3.96-1.04-7.54-2.64-10.75-4.81-3.21-2.17-5.77-4.96-7.68-8.37-1.91-3.41-2.87-7.46-2.87-12.17h19.25c0,2.33.31,4.3.93,5.91.62,1.6,1.53,2.89,2.73,3.86,1.2.97,2.68,1.66,4.43,2.08,1.75.42,3.75.63,6.02.63,2.44,0,4.41-.36,5.91-1.07,1.49-.71,2.59-1.66,3.28-2.84.69-1.18,1.04-2.49,1.04-3.91Z"/><path class="cls-10" d="M1162.49,102.3l-19.41,62.89h-20.62l29.26-79.62h13.07l-2.3,16.73ZM1177.8,135.5v14.82h-40.85v-14.82h40.85ZM1178.57,165.19l-19.47-62.89-2.52-16.73h13.23l29.42,79.62h-20.67Z"/><path d="M373.9,208.19v43.37h-3.66v-43.37h3.66ZM397.05,208.19v3.16h-24.24v-3.16h24.24ZM394.16,227.64v3.13h-21.36v-3.13h21.36ZM397.2,248.43v3.13h-24.39v-3.13h24.39Z"/><path d="M437.23,208.19v43.37h-3.69l-24.93-37.05v37.05h-3.66v-43.37h3.66l24.99,37.05v-37.05h3.63Z"/><path d="M451.94,208.19v43.37h-3.66v-43.37h3.66ZM477.44,227.64v3.13h-26.36v-3.13h26.36ZM480.39,208.19v43.37h-3.66v-43.37h3.66Z"/><path d="M506.21,210.79l-15.01,40.78h-3.81l16.38-43.37h2.65l-.21,2.59ZM517.17,236.25v3.16h-23.02v-3.16h23.02ZM519.85,251.56l-15.04-40.78-.21-2.59h2.65l16.41,43.37h-3.81Z"/><path d="M562.35,208.19v43.37h-3.69l-24.93-37.05v37.05h-3.66v-43.37h3.66l24.99,37.05v-37.05h3.63Z"/><path d="M600.42,238.04h3.66c-.3,2.92-1.1,5.44-2.41,7.55-1.31,2.11-3.1,3.74-5.36,4.87-2.26,1.13-4.99,1.7-8.19,1.7-2.46,0-4.69-.47-6.69-1.4-2-.93-3.71-2.26-5.14-3.98s-2.53-3.78-3.31-6.18c-.78-2.4-1.16-5.07-1.16-8.01v-5.42c0-2.94.39-5.6,1.16-8,.77-2.39,1.89-4.45,3.34-6.18,1.45-1.73,3.19-3.06,5.21-3.99s4.31-1.4,6.85-1.4c3.08,0,5.74.56,7.98,1.68,2.24,1.12,4.02,2.74,5.32,4.84s2.1,4.65,2.4,7.62h-3.66c-.28-2.34-.89-4.33-1.85-5.96s-2.27-2.88-3.95-3.74c-1.68-.86-3.76-1.3-6.24-1.3-2.03,0-3.83.39-5.42,1.16s-2.94,1.88-4.05,3.32c-1.11,1.44-1.96,3.16-2.55,5.17s-.88,4.24-.88,6.7v5.48c0,2.38.28,4.58.83,6.58.56,2.01,1.37,3.74,2.46,5.21,1.08,1.47,2.41,2.61,3.98,3.42,1.57.81,3.36,1.22,5.36,1.22,2.56,0,4.7-.41,6.42-1.24s3.05-2.05,4.01-3.68,1.58-3.65,1.88-6.08Z"/><path d="M617.49,208.19v43.37h-3.66v-43.37h3.66Z"/><path d="M661.54,208.19v43.37h-3.69l-24.93-37.05v37.05h-3.66v-43.37h3.66l24.99,37.05v-37.05h3.63Z"/><path d="M703.86,230.95v15.43c-.5.73-1.35,1.55-2.56,2.44-1.21.89-2.84,1.67-4.88,2.34-2.04.67-4.59,1-7.62,1-2.54,0-4.87-.46-7-1.37s-3.97-2.24-5.53-3.98c-1.56-1.74-2.76-3.83-3.6-6.27-.84-2.44-1.27-5.18-1.27-8.22v-5.24c0-2.98.39-5.66,1.16-8.06s1.9-4.44,3.37-6.15c1.47-1.71,3.24-3.01,5.32-3.92,2.07-.9,4.4-1.36,6.98-1.36,3.22,0,5.93.56,8.13,1.67,2.2,1.11,3.93,2.64,5.17,4.57,1.24,1.94,2.01,4.12,2.31,6.57h-3.66c-.28-1.73-.85-3.32-1.73-4.78-.87-1.46-2.14-2.64-3.8-3.53-1.66-.89-3.8-1.34-6.42-1.34-2.1,0-3.98.39-5.61,1.16-1.64.77-3.01,1.88-4.12,3.31-1.11,1.43-1.96,3.14-2.53,5.14-.58,2-.86,4.21-.86,6.66v5.3c0,2.54.32,4.83.97,6.88.64,2.05,1.57,3.8,2.79,5.27,1.21,1.47,2.66,2.6,4.35,3.38,1.69.78,3.56,1.18,5.63,1.18,2.2,0,4.08-.21,5.63-.63s2.79-.92,3.74-1.5,1.62-1.14,2.04-1.65v-11.17h-11.65v-3.13h15.28Z"/><path d="M732.84,208.19v43.37h-3.66v-43.37h3.66ZM741.04,251.56h-9.83l.06-3.13h9.77c3.12,0,5.8-.7,8.06-2.1,2.25-1.4,4-3.34,5.23-5.82,1.23-2.48,1.85-5.36,1.85-8.64v-4.05c0-2.5-.35-4.77-1.06-6.79-.71-2.03-1.71-3.76-3.02-5.2-1.31-1.44-2.87-2.55-4.69-3.32-1.82-.77-3.85-1.16-6.09-1.16h-10.28v-3.16h10.28c2.7,0,5.18.46,7.43,1.38,2.25.92,4.21,2.25,5.87,3.99,1.66,1.74,2.94,3.82,3.84,6.24.9,2.42,1.35,5.12,1.35,8.1v3.96c0,2.98-.45,5.68-1.35,8.1-.9,2.42-2.19,4.5-3.86,6.22s-3.64,3.05-5.93,3.98c-2.28.92-4.83,1.38-7.62,1.38Z"/><path d="M773.62,208.19v43.37h-3.66v-43.37h3.66Z"/><path d="M809.93,240.9c0-1.19-.2-2.25-.6-3.19-.4-.93-1.05-1.77-1.95-2.52-.9-.74-2.12-1.44-3.63-2.08-1.52-.64-3.41-1.29-5.67-1.92-2.17-.62-4.12-1.29-5.87-2.03s-3.24-1.58-4.48-2.53c-1.24-.95-2.19-2.07-2.84-3.35-.66-1.28-.98-2.77-.98-4.48s.36-3.19,1.07-4.56,1.72-2.55,3.02-3.54c1.3-.99,2.84-1.76,4.62-2.29,1.78-.54,3.73-.8,5.85-.8,3.04,0,5.66.58,7.88,1.73,2.21,1.15,3.93,2.71,5.15,4.66,1.22,1.96,1.83,4.15,1.83,6.57h-3.66c0-1.89-.44-3.57-1.33-5.05-.88-1.48-2.16-2.64-3.81-3.49-1.66-.84-3.68-1.27-6.06-1.27s-4.38.36-6,1.09c-1.62.73-2.84,1.69-3.66,2.89-.82,1.2-1.24,2.54-1.24,4.01,0,1.03.2,1.98.6,2.84.4.86,1.05,1.67,1.95,2.41.9.75,2.1,1.44,3.59,2.08,1.49.65,3.33,1.26,5.51,1.83,2.3.64,4.35,1.34,6.14,2.11,1.79.78,3.3,1.66,4.53,2.67,1.23,1,2.16,2.17,2.8,3.5.64,1.33.95,2.88.95,4.65s-.37,3.35-1.12,4.75c-.75,1.4-1.79,2.59-3.13,3.56-1.34.97-2.92,1.72-4.74,2.23-1.82.52-3.8.77-5.94.77-1.93,0-3.84-.25-5.75-.74-1.91-.5-3.65-1.27-5.23-2.31-1.58-1.04-2.84-2.39-3.78-4.04s-1.42-3.61-1.42-5.9h3.63c0,1.83.37,3.37,1.1,4.62.73,1.25,1.71,2.26,2.93,3.04,1.22.78,2.57,1.34,4.05,1.68s2.96.52,4.45.52c2.28,0,4.26-.34,5.94-1.01,1.68-.67,2.98-1.62,3.9-2.84.92-1.22,1.38-2.65,1.38-4.27Z"/><path d="M835.75,210.79l-15.01,40.78h-3.81l16.38-43.37h2.65l-.21,2.59ZM846.71,236.25v3.16h-23.02v-3.16h23.02ZM849.39,251.56l-15.04-40.78-.21-2.59h2.65l16.41,43.37h-3.81Z"/><path d="M884.15,240.9c0-1.19-.2-2.25-.6-3.19-.4-.93-1.05-1.77-1.95-2.52-.9-.74-2.12-1.44-3.63-2.08-1.52-.64-3.41-1.29-5.67-1.92-2.17-.62-4.12-1.29-5.87-2.03s-3.24-1.58-4.48-2.53c-1.24-.95-2.19-2.07-2.84-3.35-.66-1.28-.98-2.77-.98-4.48s.36-3.19,1.07-4.56,1.72-2.55,3.02-3.54c1.3-.99,2.84-1.76,4.62-2.29,1.78-.54,3.73-.8,5.85-.8,3.04,0,5.66.58,7.88,1.73,2.21,1.15,3.93,2.71,5.15,4.66,1.22,1.96,1.83,4.15,1.83,6.57h-3.66c0-1.89-.44-3.57-1.33-5.05-.88-1.48-2.16-2.64-3.81-3.49-1.66-.84-3.68-1.27-6.06-1.27s-4.38.36-6,1.09c-1.62.73-2.84,1.69-3.66,2.89-.82,1.2-1.24,2.54-1.24,4.01,0,1.03.2,1.98.6,2.84.4.86,1.05,1.67,1.95,2.41.9.75,2.1,1.44,3.59,2.08,1.49.65,3.33,1.26,5.51,1.83,2.3.64,4.35,1.34,6.14,2.11,1.79.78,3.3,1.66,4.53,2.67,1.23,1,2.16,2.17,2.8,3.5.64,1.33.95,2.88.95,4.65s-.37,3.35-1.12,4.75c-.75,1.4-1.79,2.59-3.13,3.56-1.34.97-2.92,1.72-4.74,2.23-1.82.52-3.8.77-5.94.77-1.93,0-3.84-.25-5.75-.74-1.91-.5-3.65-1.27-5.23-2.31-1.58-1.04-2.84-2.39-3.78-4.04s-1.42-3.61-1.42-5.9h3.63c0,1.83.37,3.37,1.1,4.62.73,1.25,1.71,2.26,2.93,3.04,1.22.78,2.57,1.34,4.05,1.68s2.96.52,4.45.52c2.28,0,4.26-.34,5.94-1.01,1.68-.67,2.98-1.62,3.9-2.84.92-1.22,1.38-2.65,1.38-4.27Z"/><path d="M925.14,208.19v3.16h-33.33v-3.16h33.33ZM910.27,208.19v43.37h-3.63v-43.37h3.63Z"/><path d="M935.83,208.19v43.37h-3.66v-43.37h3.66ZM958.97,208.19v3.16h-24.24v-3.16h24.24ZM956.08,227.64v3.13h-21.36v-3.13h21.36ZM959.12,248.43v3.13h-24.39v-3.13h24.39Z"/><path d="M966.78,208.19h14.09c3,0,5.6.49,7.8,1.46,2.21.97,3.91,2.41,5.11,4.3s1.8,4.22,1.8,6.98c0,2.04-.43,3.9-1.29,5.57-.86,1.67-2.05,3.06-3.56,4.18s-3.26,1.89-5.24,2.31l-1.28.48h-15.04l-.06-3.13h12.6c2.26,0,4.15-.44,5.66-1.31,1.51-.87,2.65-2.03,3.41-3.47.76-1.44,1.15-2.98,1.15-4.63,0-1.97-.42-3.67-1.27-5.11-.84-1.44-2.09-2.55-3.74-3.32s-3.66-1.16-6.05-1.16h-10.43v40.21h-3.66v-43.37ZM993.55,251.56l-11.23-19.39,3.93-.03,11.2,19.03v.39h-3.9Z"/><path d="M1020.39,208.19h14.09c3,0,5.6.49,7.8,1.46,2.21.97,3.91,2.41,5.11,4.3s1.8,4.22,1.8,6.98c0,2.04-.43,3.9-1.29,5.57-.86,1.67-2.05,3.06-3.56,4.18s-3.26,1.89-5.24,2.31l-1.28.48h-15.04l-.06-3.13h12.6c2.26,0,4.15-.44,5.66-1.31,1.51-.87,2.65-2.03,3.41-3.47.76-1.44,1.15-2.98,1.15-4.63,0-1.97-.42-3.67-1.27-5.11-.84-1.44-2.09-2.55-3.74-3.32s-3.66-1.16-6.05-1.16h-10.43v40.21h-3.66v-43.37ZM1047.17,251.56l-11.23-19.39,3.93-.03,11.2,19.03v.39h-3.9Z"/><path d="M1062.89,208.19v43.37h-3.66v-43.37h3.66ZM1086.04,208.19v3.16h-24.24v-3.16h24.24ZM1083.15,227.64v3.13h-21.36v-3.13h21.36ZM1086.19,248.43v3.13h-24.39v-3.13h24.39Z"/><path d="M1097.59,208.19v43.37h-3.66v-43.37h3.66ZM1119.01,248.43v3.13h-22.49v-3.13h22.49Z"/><path d="M1130.57,208.19v43.37h-3.66v-43.37h3.66Z"/><path d="M1145.99,208.19v43.37h-3.66v-43.37h3.66ZM1169.14,208.19v3.16h-24.24v-3.16h24.24ZM1166.25,227.64v3.13h-21.36v-3.13h21.36ZM1169.29,248.43v3.13h-24.39v-3.13h24.39Z"/><path d="M1180.69,208.19v43.37h-3.66v-43.37h3.66ZM1203.9,208.19v3.16h-24.42v-3.16h24.42ZM1200.89,228.15v3.16h-21.42v-3.16h21.42Z"/></svg>